<?xml version="1.0" encoding="UTF-8"?>
<svg id="_圖層_2" data-name="圖層 2" xmlns="http://www.w3.org/2000/svg" viewBox="0 0 270.03 109.81">
  <defs>
    <style>
      .cls-1 {
        fill: none;
        stroke: #facd78;
        stroke-miterlimit: 10;
        stroke-width: 2.03px;
      }

      .cls-2 {
        fill: #facd78;
      }
    </style>
  </defs>
  <g id="_圖層_1-2" data-name="圖層 1">
    <g>
      <rect class="cls-1" x="1.02" y="1.02" width="268" height="89.79" rx="24.42" ry="24.42"/>
      <g>
        <path class="cls-2" d="M51.55,34.37c3.77,8.28,11.04,14.31,18.18,17.35l-.14,.51c-2.67,.55-4.83,2.71-5.89,5.98-6.72-5.02-10.54-12.75-12.89-23.61v18.91l2.95-4.42s3.54,3.18,5.52,5.25c-.14,.51-.64,.74-1.29,.74h-7.18v9.02c0,.55-2.76,1.84-5.57,1.84h-1.29v-10.86h-7.92l-.37-1.29h8.28v-9.53c-4.14,6.21-10.08,11.28-17.95,14.96l-.41-.37c7.23-6.03,12.38-15.65,14.63-24.48h-12.38l-.37-1.29h16.48v-10.81l8.93,.87c-.09,.78-.51,1.33-2.07,1.56v8.38h7.32l3.64-5.02s4.1,3.36,6.44,5.57c-.14,.51-.64,.74-1.33,.74h-15.32Z"/>
        <path class="cls-2" d="M96.94,57.34c1.38-3.31,1.93-7.18,2.16-11.14-.18,.05-.46,.05-.78,.09-1.1,3.22-3.41,6.72-6.44,9.48,.18,.09,.37,.18,.6,.32,3.45,2.44,9.16,3.13,19.74,3.08,5.29,0,9.66-.05,14.96-.37v.51c-2.62,.6-4.14,3.08-4.46,5.61h-12.79c-10.26,0-14.17-2.16-17.99-6.95-.69-.97-1.24-.87-1.66,.09-.69,1.47-1.61,3.87-2.53,6.4,.09,.46-.14,.74-.46,.92l-4.23-6.3c2.3-.97,5.48-2.9,6.95-3.41,1.24-2.9,2.21-6.67,2.58-9.8h-1.24l-1.79,1.7-4.83-3.27c.41-.32,1.1-.69,1.84-.97,1.43-2.07,3.27-5.11,4.46-7.27h-6.72l-.41-1.29h7.18l2.49-2.53,4.97,4.51c-.41,.41-1.2,.64-2.16,.78-1.15,1.89-3.04,4.92-4.46,7.04h.32l2.85-2.81,4.14,3.22c.09-2.62,.09-5.34,.09-7.92v-13.76l6.54,2.3h11.6l2.58-2.95,5.48,4.23c-.32,.37-.92,.78-1.89,.97v24.39c0,3.54-.87,5.48-7.04,5.94-.14-1.56-.32-2.76-.97-3.5-.69-.69-1.52-1.29-3.68-1.66v-.6s4.1,.28,5.06,.28c.74,0,.92-.32,.92-.87v-7.96c-.23,.28-.69,.46-1.2,.6v6.44c-.05,.37-2.16,1.38-3.64,1.38h-.74v-1.1h-2.62v1.7c0,.37-1.84,1.29-3.64,1.29h-.6v-13.21l4.42,1.79h2.07l1.98-2.02,3.96,2.95v-4.51c-.18,.14-.46,.18-.78,.18h-11.92l-.23-.83c-.09,6.31-.83,13.9-7.55,19.14l-.46-.37Zm-10.49-34.1c13.76,1.84,8.01,12.29,2.58,8.01-.18-2.76-1.47-5.75-2.95-7.78l.37-.23Zm18.5,3.68v5.25h3.31v-4.92l6.12,.55c-.09,.51-.37,.87-1.33,1.06v3.31h.18l1.79-2.39s1.66,1.43,2.85,2.62v-5.48h-12.93Zm3.31,11.18v-4.65h-3.13l-.18-.64v5.29h3.31Zm4.05,11.83v-5.84h-2.62v5.84h2.62Zm2.48-14.45s1.79,1.52,3.08,2.81v-5.06c-.18,.18-.46,.23-.83,.23h-4v4.42l1.75-2.39Z"/>
        <path class="cls-2" d="M140.62,33.36c13.85,.23,9.34,11,3.68,7.46-.55-2.62-2.35-5.43-4-7.18l.32-.28Zm38.29,.14s3.68,3.04,5.8,5.06c-.09,.51-.64,.74-1.29,.74h-11.55v8.74h2.44l2.99-3.22,5.98,4.56c-.32,.37-.87,.83-1.84,1.01v13.53c-.05,.41-3.22,1.75-5.48,1.75h-1.15v-3.96h-12.29v2.21c0,.6-2.85,2.02-5.61,2.02h-.92v-20.53l6.81,2.62h2.25v-8.74h-11.09l-.32-1.15c-1.56,4.65-3.13,9.66-3.59,11.32-.41,1.52-.83,3.27-.78,4.46,.09,2.62,2.3,3.91,2.16,8.05-.09,2.49-2.03,4.14-4.69,4.14-1.2,0-2.58-.6-3.08-2.39,.97-4.83,.78-9.3-.32-10.03-.69-.46-1.52-.74-2.49-.83v-.78h2.16c.78,0,1.01,0,1.61-.92q1.24-1.75,10.31-18.82l.64,.18c-.55,1.52-1.2,3.45-1.89,5.48h11.37v-7.55c-3.64,.28-7.41,.46-10.86,.51l-.09-.6c7.64-1.79,17.49-5.15,22.46-7.64l6.3,6.07c-.6,.46-1.75,.51-3.36-.09-2.16,.37-4.79,.74-7.64,1.1v8.19h3.77l3.27-4.51Zm-34.84-10.22c14.36,.05,10.26,11.04,4.33,7.73-.83-2.67-2.9-5.61-4.65-7.46l.32-.28Zm18.45,26.05v11.09h12.29v-11.09h-12.29Z"/>
        <path class="cls-2" d="M242.1,35.71c-.32,.41-.97,.78-1.98,.92-.32,19.19-.83,24.3-3.41,26.78-1.61,1.61-3.68,2.25-6.26,2.25,.05-2.02-.09-3.41-.64-4.23-.6-.92-1.56-1.56-3.18-2.03v-.55c1.2,.09,3.04,.18,3.91,.18,.64,0,1.06-.18,1.47-.55,1.38-1.29,1.79-7.59,2.07-22.92h-3.04c-.32,13.94-1.98,23.84-14.4,30.51l-.46-.6c2.35-2.39,4.1-4.97,5.34-7.73-4.05,1.79-10.08,4.05-19.1,6.9-.32,.6-.87,.97-1.47,1.06l-2.62-7.5c1.89-.05,4.97-.18,8.79-.37v-3.31h-7.92l-.37-1.29h8.28v-4.14h-2.21v.6c0,.41-1.75,1.29-4.65,1.29h-1.01v-16.94l6.12,2.3h1.75v-3.18h-8.65l-.37-1.29h9.02v-3.41c-3.08,.14-6.21,.18-9.07,.18l-.09-.64c6.4-1.38,14.87-3.91,19.19-5.75l5.34,5.52c-.6,.46-1.7,.41-3.13-.18-1.89,.23-4.14,.41-6.58,.6v3.68h2.44l2.9-3.64s3.31,2.44,5.29,4.19c-.09,.51-.6,.74-1.29,.74h-9.34v3.18h2.25l2.71-3.08,5.11,3.87c-.28,.41-.69,.69-1.75,.87v10.91c0,.18-1.29,.92-3.5,1.15,.74,.55,3.17,2.39,4.79,3.73-.14,.51-.6,.74-1.29,.74h-8.33v2.99c2.9-.18,5.98-.37,9.11-.6,2.49-5.94,2.95-12.93,2.99-21.35h-3.45l-.41-1.29h3.87c0-3.5-.05-7.27-.05-11.32l8.01,.74c-.14,.74-.64,1.15-1.7,1.29-.05,3.27-.05,6.35-.09,9.3h2.49l3.27-3.27,5.29,4.69Zm-37.18,1.93v4.42h2.21v-4.42h-2.21Zm2.21,10.17v-4.46h-2.21v4.46h2.21Zm5.66-10.17v4.42h2.39v-4.42h-2.39Zm2.39,5.71h-2.39v4.46h2.39v-4.46Zm-2.39,9.89h1.89l2.58-3.18c-.32,.05-.64,.05-1.01,.05h-1.06v-1.01h-2.39v4.14Z"/>
      </g>
    </g>
  </g>
</svg>