<?xml version="1.0" encoding="UTF-8"?>
<svg id="_圖層_2" data-name="圖層 2" xmlns="http://www.w3.org/2000/svg" viewBox="0 0 459.03 65.84">
  <defs>
    <style>
      .cls-1 {
        fill: none;
        stroke: #facd78;
        stroke-miterlimit: 10;
        stroke-width: 2.03px;
      }

      .cls-2 {
        fill: #facd78;
      }
    </style>
  </defs>
  <g id="_圖層_1-2" data-name="圖層 1">
    <g>
      <path class="cls-2" d="M135.15,25.56c-1.28,2.17-2.85,4.38-4.55,6.51v22.2h-5.06v-16.63c-1.19,1.15-2.34,2.21-3.49,3.15-.72-1.02-2.42-3.32-3.44-4.38,4.34-2.98,8.97-7.91,11.69-12.71l4.85,1.87Zm-1.57-9.06c-3.06,4-7.65,8.38-11.69,11.18-.64-1.11-1.91-3.15-2.81-4.12,3.53-2.25,7.57-6.08,9.61-9.06l4.89,2Zm25.01,16.93h-5.83v14.93c0,2.72-.51,4.12-2.38,4.89-1.79,.77-4.51,.85-8.29,.85-.21-1.49-.85-3.7-1.53-5.15,2.42,.13,5.23,.13,6,.08,.77,0,1.06-.17,1.06-.81v-14.8h-12.55v-4.81h23.52v4.81Zm-1.06-11.69h-20.67v-4.81h20.67v4.81Z"/>
      <path class="cls-2" d="M219.89,24.07s-.04,1.66-.04,2.25c-.38,17.39-.72,23.56-2.08,25.52-.98,1.4-1.96,1.83-3.36,2.13-1.28,.26-3.23,.21-5.27,.17-.08-1.4-.64-3.44-1.49-4.85,1.87,.17,3.49,.21,4.29,.21,.64,0,1.06-.17,1.45-.72,.89-1.15,1.32-6.34,1.57-20.07h-3.83c-.55,11.4-2.51,20.16-9.65,25.81-.64-1.02-1.87-2.42-2.98-3.36-6.12,.64-12.25,1.28-16.84,1.66l-.6-4.25c2.38-.17,5.36-.38,8.63-.6v-2.55h-7.48v-3.57h7.48v-1.66h-7.31v-13.14h7.31v-1.66h-8.38v-3.66h8.38v-1.7c-2.47,.17-4.89,.3-7.19,.34-.17-1.02-.64-2.59-1.11-3.57,6.29-.34,13.65-1.06,18.33-2.08l2.21,3.78c-2.25,.47-4.89,.85-7.65,1.15v2.08h8.17v2.34h4c.04-2.81,.04-5.74,.04-8.89h4.85c0,3.1,0,6.08-.08,8.89h8.63Zm-33.51,8.04h3.32v-1.87h-3.32v1.87Zm3.32,4.93v-1.91h-3.32v1.91h3.32Zm4.59,10.55c2.42-.17,4.93-.38,7.4-.59,3.32-4.59,4.34-10.67,4.64-18.29h-3.87v-3.32h-8.17v1.66h7.53v13.14h-7.53v1.66h7.7v3.57h-7.7v2.17Zm3.32-15.48v-1.87h-3.32v1.87h3.32Zm-3.32,3.02v1.91h3.32v-1.91h-3.32Z"/>
      <path class="cls-2" d="M278.06,35.94c-.85,3.66-2.08,6.63-3.83,9.1,3.1,1.79,6.04,3.49,7.99,4.98l-3.36,4.08c-1.96-1.57-4.8-3.44-8.04-5.4-3.15,2.64-7.4,4.38-13.06,5.66-.34-1.23-1.53-3.53-2.42-4.68,4.59-.77,8.08-1.91,10.72-3.7-2.51-1.4-5.1-2.72-7.36-3.87,.98-1.7,2-3.87,3.02-6.17h-4.42l.38,2.42c-1.53,.47-3.06,.94-4.64,1.4v9.14c0,2.42-.47,3.66-1.87,4.38-1.4,.81-3.4,.94-6.34,.94-.17-1.32-.81-3.28-1.45-4.59,1.66,.08,3.4,.08,3.96,.08,.6,0,.81-.21,.81-.81v-7.74l-4.64,1.32-1.06-4.85c1.62-.34,3.57-.85,5.7-1.4v-9.02h-5.06v-4.72h5.06v-7.95h4.89v7.95h4v4.72h-4v7.7l3.32-.94v-2.55h7.19c.81-2.13,1.45-4.29,1.96-6.34l5.19,.72c-.51,1.83-1.11,3.7-1.79,5.61h4.46c.09-.89,.17-1.79,.21-2.72l5.57,.09c-.08,.89-.21,1.79-.3,2.64h3.87v4.51h-4.68Zm-15.48-7.48h-4.72v-9.02h9.23c-.3-1.45-.68-3.02-1.02-4.34l5.15-.76c.47,1.57,.98,3.49,1.32,5.1h9.48v8.97h-4.93v-4.55h-14.5v4.59Zm4.68,7.48c-.68,1.62-1.32,3.1-1.96,4.47,1.4,.72,2.93,1.45,4.42,2.21,1.32-1.79,2.3-4.04,2.93-6.68h-5.4Z"/>
      <path class="cls-2" d="M344.43,48.19v4.81h-23.77v-3.15c-5.1,1.15-10.46,2.25-14.54,3.19l-.94-4.55c1.66-.26,3.74-.6,5.95-.98v-10.72h-5.4v-4.29h5.4v-3.1h-2.93v-1.91c-.68,.64-1.4,1.28-2.08,1.83-.21-1.11-1.19-3.96-1.74-5.19,3.1-2.3,6.46-6,8.38-9.87l3.7,1.7c-.25,.51-.51,1.02-.77,1.53,2.72,1.62,5.4,3.62,6.97,5.15l-2.13,4.12c-.38-.38-.81-.81-1.32-1.28v3.91h-3.83v3.1h5.19v4.29h-5.19v9.95l5.19-.98,.17,2.42h4.51c.43-3.36,.89-7.4,1.28-11.61h-4.08v-4.81h4.55c.3-3.44,.59-6.93,.76-10.16h-4.25v-4.81h17.9c-.08,4.64-.21,9.87-.38,14.97h3.32v4.81h-3.49c-.17,4.25-.38,8.25-.6,11.61h4.17Zm-35.3-9.82c.68,2.3,1.32,5.32,1.53,7.27l-3.23,.94c-.13-2-.77-5.02-1.36-7.36l3.06-.85Zm9.74-13.18c-1.57-1.36-3.49-2.81-5.44-4.04-.94,1.4-2,2.76-3.1,4.04h8.55Zm-3.06,19.95c.55-1.96,1.19-5.02,1.49-7.19l3.53,.98c-.81,2.51-1.53,5.32-2.21,7.14l-2.81-.94Zm15.31-8.55c-.38,4.25-.85,8.29-1.23,11.61h5.44c.3-3.36,.55-7.4,.77-11.61h-4.98Zm1.32-14.97c-.26,3.23-.55,6.68-.85,10.16h4.72c.13-3.4,.21-6.89,.3-10.16h-4.17Z"/>
    </g>
    <rect class="cls-1" x="1.02" y="1.02" width="457" height="63.8" rx="24.42" ry="24.42"/>
  </g>
</svg>