<?xml version="1.0" encoding="UTF-8"?>
<svg xmlns="http://www.w3.org/2000/svg" xmlns:xlink="http://www.w3.org/1999/xlink" viewBox="0 0 952.33 584.66">
  <defs>
    <style>
      .cls-1 {
        fill: #ecded0;
      }

      .cls-2 {
        fill: #005225;
      }

      .cls-3 {
        isolation: isolate;
      }

      .cls-4 {
        fill: url(#Degradado_sin_nombre_39);
        mix-blend-mode: soft-light;
        opacity: .62;
      }

      .cls-5 {
        fill: none;
        stroke: #ecded0;
        stroke-miterlimit: 10;
        stroke-width: 4.34px;
      }

      .cls-6 {
        fill: #facd78;
      }

      .cls-7 {
        fill: url(#Degradado_sin_nombre_37);
      }
    </style>
    <linearGradient id="Degradado_sin_nombre_37" data-name="Degradado sin nombre 37" x1="300.38" y1="164.73" x2="349.07" y2="164.73" gradientTransform="translate(.58 3) rotate(-.4)" gradientUnits="userSpaceOnUse">
      <stop offset="0" stop-color="#fabc59"/>
      <stop offset=".41" stop-color="#f7af5b"/>
      <stop offset=".99" stop-color="#f29561"/>
    </linearGradient>
    <linearGradient id="Degradado_sin_nombre_39" data-name="Degradado sin nombre 39" x1="315.8" y1="199.1" x2="342.06" y2="153.62" gradientTransform="translate(.58 3) rotate(-.4)" gradientUnits="userSpaceOnUse">
      <stop offset=".15" stop-color="#fff"/>
      <stop offset=".19" stop-color="#fff" stop-opacity=".92"/>
      <stop offset=".3" stop-color="#fff" stop-opacity=".68"/>
      <stop offset=".41" stop-color="#fff" stop-opacity=".47"/>
      <stop offset=".52" stop-color="#fff" stop-opacity=".3"/>
      <stop offset=".62" stop-color="#fff" stop-opacity=".17"/>
      <stop offset=".72" stop-color="#fff" stop-opacity=".08"/>
      <stop offset=".81" stop-color="#fff" stop-opacity=".02"/>
      <stop offset=".89" stop-color="#fff" stop-opacity="0"/>
    </linearGradient>
  </defs>
  <g class="cls-3">
    <g id="_圖層_2" data-name="圖層 2">
      <g id="_圖層_1-2" data-name="圖層 1">
        <g>
          <path class="cls-1" d="M396.72,168.29c-.26,15.7-.52,21.51-1.67,23.39-.94,1.47-1.88,1.94-3.25,2.2-1.15,.26-3.04,.31-4.97,.21-.16-1.67-.73-4.08-1.52-5.65,1.57,.21,2.88,.21,3.66,.21,.58,0,.94-.16,1.31-.79,.63-1.05,.89-5.13,1.05-16.43h-3.82c-.63,9.84-2.09,18-6.18,23.76-.89-1.57-2.62-3.72-4.03-4.66,4.61-6.65,4.92-17.06,5.02-30.09h-4.4v-5.76h8.95c-.84-2.04-2.25-4.66-3.45-6.65l4.87-2.35c1.46,2.2,3.35,5.39,4.19,7.43l-2.93,1.57h8.01v2.98c2.46-3.25,4.45-7.33,5.65-11.51l5.39,1.26c-.52,1.73-1.1,3.4-1.83,5.02h19.1v5.23h-21.77c-1.36,2.35-2.88,4.5-4.5,6.18-.99-.84-3.4-2.46-4.71-3.19l.26-.26h-7.33c0,1.88-.05,3.66-.1,5.44h9v2.46Zm29.68,19.1v5.29h-28.63v-5.29h11.88v-6.7h-8.9v-5.08h8.9v-5.76h-5.29c-.89,1.83-1.88,3.51-2.77,4.82-1.05-1.05-3.09-2.67-4.34-3.46,2.2-2.83,4.34-7.17,5.6-11.3l4.87,1.73c-.26,1.05-.63,2.04-1.05,3.09h2.98v-4.92h6.18v4.92h8.79v5.13h-8.79v5.76h8.32v5.08h-8.32v6.7h10.57Z"/>
          <path class="cls-1" d="M490.61,185.04h-8.17c2.62,2.15,5.86,4.97,7.43,6.96l-4.61,3.3c-1.62-2.15-5.08-5.55-7.85-7.85l3.56-2.41h-10.89l4.66,1.62c-2.25,3.09-5.81,6.59-8.79,8.74-.99-1-3.19-2.83-4.45-3.66,2.77-1.73,5.76-4.24,7.64-6.7h-7.54v-5.02h5.34v-14.65h-3.35v-4.19c-.58,.73-1.15,1.36-1.73,1.94-.73-.79-2.41-2.3-3.66-3.25h-6.23c0,1.94-.05,3.77-.11,5.65h8.48v2.41c-.26,16.33-.52,22.45-1.78,24.23-.89,1.41-1.73,1.88-3.09,2.2-1.15,.26-2.88,.26-4.76,.21-.1-1.67-.68-3.98-1.41-5.44,1.36,.11,2.51,.16,3.19,.16s.99-.16,1.36-.79c.63-1.1,.89-5.39,1.1-17.32h-3.4c-.63,9.42-2.09,17.95-5.91,24.02-.94-1.41-2.67-3.25-4.13-4.08,4.5-7.28,4.97-19,5.13-31.25h-4.61v-5.5h8.11c-.63-1.99-1.83-4.66-2.88-6.8l5.29-1.41c1.26,2.2,2.62,5.18,3.35,7.07l-3.56,1.15h7.8v2.25c2.25-3.04,4.03-6.8,5.13-10.73l5.44,1.26c-.37,1.26-.84,2.51-1.26,3.77h20.62v5.02h-22.98c-.89,1.62-1.83,3.04-2.88,4.4h2.72v-2.88h5.44v2.88h8.06v-2.88h5.44v2.88h3.46v5.02h-3.46v14.65h4.71v5.02Zm-18.21-19.68v2.2h8.06v-2.2h-8.06Zm0,8.37h8.06v-2.3h-8.06v2.3Zm0,6.28h8.06v-2.41h-8.06v2.41Z"/>
          <path class="cls-1" d="M551.96,161.54c-1.1,7.75-2.88,14.13-5.65,19.47,2.36,3.72,5.44,6.7,9.26,8.69-1.41,1.26-3.35,3.72-4.29,5.44-3.56-2.15-6.49-4.97-8.79-8.37-2.93,3.45-6.54,6.28-11.1,8.58-.58-1.47-2.41-4.34-3.56-5.65,4.92-2.2,8.58-5.13,11.25-8.95-1.41-3.24-2.62-6.75-3.56-10.57-.79,1.26-1.57,2.51-2.41,3.61-.68-.79-2.15-2.15-3.45-3.24-2.04,2.35-4.66,4.76-7.22,6.75v1.31c3.04-.26,6.12-.52,9.16-.79v5.29c-3.04,.31-6.12,.63-9.16,.89v5.18c0,2.72-.47,4.13-2.3,4.97-1.83,.84-4.29,.89-7.59,.89-.21-1.62-.99-3.77-1.78-5.29,2.04,.05,4.29,.05,4.97,.05,.68-.05,.89-.21,.89-.73v-4.5c-3.61,.37-7.07,.68-9.94,.99l-.63-5.55c2.93-.26,6.59-.52,10.57-.89v-2.88c1.41-.99,2.93-2.3,4.34-3.66h-5.44c-1.83,1.41-3.82,2.62-5.86,3.77-.84-1.2-2.93-3.61-4.13-4.71,3.61-1.73,6.91-3.92,9.94-6.54h-9.32v-5.34h7.96v-3.51h-5.97v-5.23h5.97v-4.76h5.76v4.76h4.66v3.35c1.31-2.15,2.46-4.45,3.4-6.8l5.7,1.67c-1.57,3.82-3.56,7.33-5.76,10.52h3.72v4.13c2.41-4.97,4.08-11.2,5.08-17.64l6.33,.99c-.52,2.88-1.15,5.81-1.88,8.53h13.92v5.76h-3.09Zm-32.08-1.78h.84c.94-1.15,1.83-2.25,2.62-3.51h-3.45v3.51Zm8.58,9.16c.89-1.1,1.73-2.41,2.51-3.82h-7.33c-.79,.94-1.57,1.83-2.46,2.67h4.34l1.1-.31,1.83,1.46Zm11.09-7.38c.73,4.34,1.78,8.48,3.19,12.2,1.26-3.56,2.2-7.64,2.77-12.2h-5.97Z"/>
          <path class="cls-1" d="M599.27,147.78c-.26,.31-.52,.68-.79,1,4.82,4.19,13.4,7.8,21.72,9.42-1.31,1.1-3.09,3.3-3.93,4.76-1.05-.26-2.15-.63-3.24-.94v13.5h-36.38v-13.19c-1.1,.37-2.2,.73-3.25,1-.63-1.15-2.3-3.66-3.35-4.82,9.63-2.25,18.95-6.59,23.71-12.67l5.5,1.94Zm11.88,13.56c-2.46-.89-4.81-1.99-7.12-3.19v1.36h-18.37v-1.05c-2.04,1.05-4.13,2.04-6.33,2.88h31.82Zm-31.56,15.91h30.77v17.69h-6.38v-1.26h-18.27v1.41h-6.12v-17.85Zm5.91-5.5c-.26-1.62-.94-3.77-1.78-5.44l4.03-1.15h-5.91v6.59h3.66Zm.21,9.58v2.09h18.27v-2.09h-18.27Zm18.27,8.27v-2.09h-18.27v2.09h18.27Zm-11.88-24.44h-4.08c.94,1.78,1.78,4.03,2.09,5.55l-3.35,1.05h5.34v-6.59Zm7.54-9.68c-1.57-1.1-3.09-2.25-4.4-3.4-1.36,1.15-2.88,2.3-4.45,3.4h8.85Zm-2.51,9.68v6.59h4.87l-3.14-.89c.73-1.57,1.57-3.98,2.04-5.71h-3.77Zm10.36,0h-5.44l4.08,1c-1.05,2.09-2.04,4.13-2.88,5.6h4.24v-6.59Z"/>
        </g>
        <g>
          <line class="cls-5" x1="432.07" y1="52.02" x2="530.78" y2="52.02"/>
          <g>
            <path class="cls-1" d="M18.33,20.7H5.12V8.26h28.12V81.31h-14.91V20.7Z"/>
            <path class="cls-1" d="M78.57,20.7h-13.21V8.26h28.12V81.31h-14.91V20.7Z"/>
            <path class="cls-1" d="M137.1,81.31h-13.71v-14.61h13.71v14.61Z"/>
            <path class="cls-1" d="M151.91,28.1c.4-15.89,13.71-21.23,23.32-21.23,13.01,0,21.71,8.69,21.71,19.25,0,8.98-6.1,13.23-9.91,15.3,13.51,4.54,14.21,15.1,14.21,18.36,0,13.03-11.71,22.9-26.22,22.9-8.11,0-17.11-3.16-21.71-9.77-3.3-4.44-4.1-9.87-4.3-13.23h15.01c.4,4.64,4,9.97,11.31,10.07,7.21,0,11.01-4.94,11.01-11.06,0-7.21-6.9-10.46-12.71-10.46h-6v-10.96h3.3c5.1,0,11.11-2.86,11.11-9.08,0-4.44-2.6-8.39-7.4-8.39-6.3,0-7.81,5.03-8.01,8.29h-14.71Z"/>
            <path class="cls-1" d="M209.25,33.73c0-21.13,17.51-26.85,26.72-26.85,10.41,0,26.52,6.91,26.52,26.66v22.51c0,19.94-16.01,26.66-26.32,26.66s-26.92-6.71-26.92-26.66v-22.31Zm14.91,22.71c0,6.62,3.6,13.33,11.71,13.33s11.71-7.7,11.71-13.33v-23.3c0-4.15-1.6-13.33-11.81-13.33-8.31,0-11.61,7.01-11.61,13.43v23.2Z"/>
          </g>
          <g>
            <circle class="cls-1" cx="336.83" cy="42.11" r="42.11"/>
            <path class="cls-2" d="M332.39,45.97c-3.7,8.1-10.35,16.62-16.35,20.64-1.07,.64-2.09,.48-2.73-.32-.64-.86-.59-1.88,.16-2.73,4.45-5.09,8.95-12.92,11.69-20.75,.86-2.52,3.11-3.38,5.52-2.25,2.47,1.02,2.95,2.9,1.72,5.42Zm-19.25-12.01c0-1.56,.86-2.47,2.36-2.47h17.43v-10.78c0-2.14,1.34-3.27,3.7-3.27s3.7,1.13,3.7,3.27v10.78h17.59c1.5,0,2.36,.91,2.36,2.47s-.86,2.47-2.36,2.47h-42.41c-1.5,0-2.36-.91-2.36-2.47Zm45.63,32.33c-2.36,1.39-4.77,.59-5.79-1.82-2.73-6.38-7.56-15.5-11.05-21.13-.64-1.02-.43-1.98,.43-2.57,.8-.7,1.66-.64,2.57,.16,5.04,4.56,11.15,13.03,15.17,19.41,1.34,2.2,1.23,4.45-1.34,5.95Z"/>
          </g>
          <g>
            <path class="cls-1" d="M591.71,20.7h-13.21V8.26h28.12V81.31h-14.91V20.7Z"/>
            <path class="cls-1" d="M633.44,69.76c7.21-6.42,14.41-12.74,21.61-19.15,7.41-6.42,13.31-11.45,13.41-19.84,0-7.21-4.6-10.96-10.71-10.96-7.21,0-10.21,6.42-10.31,13.92h-14.31c.2-5.63,1.1-11.65,5.2-17.08,5.8-8.19,15.41-9.77,20.71-9.77,15.51,0,24.32,10.56,24.32,22.61-.1,8.49-3.2,14.51-11.91,22.71-5.8,5.53-11.71,11.06-17.61,16.68h29.92v12.44h-50.33v-11.55Z"/>
            <path class="cls-1" d="M710.49,81.31h-13.71v-14.61h13.71v14.61Z"/>
            <path class="cls-1" d="M724.2,69.76c7.21-6.42,14.41-12.74,21.61-19.15,7.41-6.42,13.31-11.45,13.41-19.84,0-7.21-4.6-10.96-10.71-10.96-7.21,0-10.21,6.42-10.31,13.92h-14.31c.2-5.63,1.1-11.65,5.2-17.08,5.8-8.19,15.41-9.77,20.71-9.77,15.51,0,24.32,10.56,24.32,22.61-.1,8.49-3.2,14.51-11.91,22.71-5.8,5.53-11.71,11.06-17.61,16.68h29.92v12.44h-50.33v-11.55Z"/>
            <path class="cls-1" d="M814.55,68.08h-34.22v-10.76l34.32-49.07h14.21V56.53h8v11.55h-8v13.23h-14.31v-13.23Zm.9-11.55V26.13l-20.01,30.41h20.01Z"/>
          </g>
          <g>
            <circle class="cls-1" cx="910.21" cy="42.11" r="42.11"/>
            <path class="cls-2" d="M886.04,59.27c0-1.82,.96-2.74,2.73-2.74h42.47c1.72,0,2.68,.91,2.68,2.74s-.96,2.68-2.68,2.68h-42.47c-1.77,0-2.73-.91-2.73-2.68Zm4.29-32.33c0-1.72,.96-2.63,2.68-2.63h34.1c1.72,0,2.63,.91,2.63,2.63s-.91,2.68-2.63,2.68h-34.1c-1.72,0-2.68-.96-2.68-2.68Z"/>
          </g>
        </g>
        <g>
          <path class="cls-7" d="M326.17,125.97c-13.45,.09-24.27,11.07-24.18,24.51,.09,13.44,24.72,54.52,24.72,54.52,0,0,24.06-41.41,23.97-54.85-.09-13.45-11.07-24.27-24.51-24.18Zm.24,35.26c-6.44,.04-11.7-5.14-11.75-11.59-.04-6.44,5.14-11.7,11.59-11.75,6.44-.04,11.7,5.14,11.75,11.59,.04,6.44-5.14,11.7-11.59,11.75Z"/>
          <path class="cls-4" d="M314.98,183.94c5.96,11.45,11.73,21.06,11.73,21.06,0,0,17.64-30.36,22.65-47.53-5.53,14.24-22.69,26.65-34.38,26.47Z"/>
        </g>
        <g>
          <path class="cls-6" d="M199.73,310.04c3.63-4.76,3.72-10.16,3.63-18.91v-4.9h20.64c-.18-1.68-.32-3.4-.41-5.17h3.91c.09,1.77,.23,3.49,.41,5.17h7.59c-1.84-1.68-3.77-3.31-5.15-4.35l.87-1.45c2.34,.86,5.2,2.04,7.26,3.31l-1.7,2.49h4v2.04h-12.64c.55,3.81,1.33,7.3,2.53,10.16,1.33-2.36,2.48-5.03,3.4-8.07l3.54,1.36c-1.24,3.31-2.8,6.71-5.29,9.84,1.29,1.86,2.85,3.13,4.74,3.58,1.38,.32,1.66-.68,1.61-6.39h1.66c1.7,6.62,1.52,11.2-2.94,10.61-3.22-.45-5.75-2.13-7.72-4.76-1.7,1.63-3.68,3.17-6.07,4.53l-.96-1.31c2.02-1.59,3.86-3.4,5.52-5.62-1.93-3.67-3.17-8.48-3.91-13.92h-16.64v3.45c-.05,11.38-2.16,15.56-6.67,19.5l-1.2-1.18Zm7.36-.45l1.61,.41c-.37,4.44-2.21,8.71-5.52,11.66l-2.85-2.95c3.59-2.54,5.47-5.03,6.76-9.12Zm16.46-15.78h-14.71v-2.04h14.71v2.04Zm-.74,11.84h-13.47v-8.8h13.47v8.8Zm7.63,6.3c1.98,7.48,.74,9.39-3.08,9.71-3.26,.27-7.13,.23-9.98,.14-5.2-.18-6.76-1.22-6.76-4.44v-8.84h3.95v7.12c0,1.91,.46,2.36,3.13,2.54,3.08,.23,6.71,.14,8.69-.14,1.84-.27,2.39-.91,2.39-6.08h1.66Zm-11.26-13.06h-6.25v4.72h6.25v-4.72Zm-1.15,9.12c2.3,1.04,5.2,2.95,7.72,5.26l-2.62,2.72c-2.25-2.72-4.09-4.67-6.02-6.71l.92-1.27Zm23.03,11.11l-3.68,1.95c-1.47-3.76-3.08-6.94-5.06-10.38l1.29-1c2.85,2.54,5.61,6.21,7.45,9.43Z"/>
          <path class="cls-6" d="M290.29,323.19c-3.95-.45-11.54-1.9-18.16-6.26-5.79,3.72-12.6,5.62-20.41,6.76l-.51-1.63c8.14-1.5,13.93-4.17,18.16-7.17-2.94-2.45-5.56-5.62-7.31-9.71h-3.68v-2.04h19.82l1.66-.77,4,2.4c-2.58,4.22-5.52,7.53-8.83,10.11,4.83,2.27,10.67,3.49,17.24,4.08l-1.98,4.22Zm-33.38-17.78h-4.14v-9.3h8.04c-1.33-2.63-2.99-5.35-4.41-7.44l1.15-1.04c2.44,1.63,5.24,4.26,7.08,6.62l-2.67,1.86h8.41c-1.2-2.54-3.22-6.03-4.41-7.94l1.15-1.04c2.25,1.63,5.33,4.67,6.99,7.03l-2.85,1.95h6.12c1.33-2.4,3.17-6.85,4.23-9.89l4.5,2c-2.11,3.04-4.55,5.99-6.39,7.89h9.79v8.93h-4.14v-6.89h-28.46v7.26Zm-2.76-18.09l-.23-1.63c13.01-.77,24.83-3.17,29.61-4.85l4.14,3.36c-6.16,1.45-21.56,3.27-33.52,3.13Zm17.52,25.76c3.13-2.68,5.15-5.49,6.48-7.89h-14.25c1.98,3.31,4.6,5.9,7.77,7.89Z"/>
          <path class="cls-6" d="M341.91,289v2.49h-24c-1.61,3.04-3.45,5.94-5.43,8.57v23.26h-4.32v-18.19c-2.25,2.4-4.55,4.31-6.71,5.67l-1.01-1.41c3.03-2.59,8.5-9.12,12.64-17.91h-11.03v-2.49h12.09c1.06-2.54,1.98-5.21,2.67-8.03l4.92,1.27c-.69,2.31-1.61,4.58-2.62,6.76h22.8Zm-12.5,29.66h11.72v2.49h-27.08v-2.49h11.03v-12.83h-9.47v-2.18h9.47v-9.71h4.32v9.71h9.42v2.18h-9.42v12.83Z"/>
          <path class="cls-6" d="M392.94,315.66l-2.76,4.31c-4.74-2.86-9.01-7.71-11.49-14.69-.78,.36-1.61,.77-2.44,1.09,.87,2.54,1.38,5.17,1.42,7.71,.18,9.21-5.47,11.38-13.1,6.53l.51-1.54c7.54,1.68,8.46,.91,8.46-6.21,0-.59-.05-1.27-.09-1.9-3.4,3.17-10.02,7.26-19.91,9.71l-.55-1.54c8.74-3.04,15.26-7.44,19.72-12.74-.23-.77-.46-1.59-.74-2.36-4.64,3.58-11.45,6.49-17.93,8.12l-.55-1.54c6.71-2.36,12.78-5.62,17.06-9.98-.32-.63-.64-1.22-1.01-1.77-4.37,2.45-9.65,4.26-14.44,5.26l-.46-1.54c7.03-2.36,10.76-4.58,13.84-7.39h-9.42v-2.04h26.53v2.04h-10.9c-1.01,.95-2.21,1.86-3.49,2.68,1.79,2,3.26,4.31,4.32,6.76,3.17-2.31,5.79-4.9,8.04-7.62l3.54,2.67c-2.25,1.81-4.5,3.45-6.9,4.81,3.04,5.44,8.05,9.16,12.74,11.2Zm-35.54-19.95h-4.05v-8.8h19.77c-2.3-1.59-5.42-3.49-7.86-4.9l.6-1.54c3.36,.73,7.77,2,10.48,3.36l-1.75,3.08h16.73v8.8h-4.04v-6.76h-29.88v6.76Z"/>
          <path class="cls-6" d="M412.1,289.82h8.32v31.84h-4.05v-4.13h-7.91v4.99h-4.05v-32.7h5.47c.64-2.9,1.2-6.76,1.42-9.12l4.97,1.04c-.97,2.49-2.71,5.71-4.18,8.07Zm4.28,2.04h-7.91v10.02h7.91v-10.02Zm0,23.63v-11.56h-7.91v11.56h7.91Zm25.79-25.58c-.09,14.06-.37,21.54-1.1,27.66-.69,5.9-5.66,7.85-14.94,2.36l.5-1.59c8.78,1.95,9.84,1.18,10.25-2.49,.51-4.45,.87-10.34,1.01-23.9h-9.84c-1.43,3.49-3.36,7.17-6.07,10.57l-1.33-1c3.31-6.39,4.92-14.74,5.66-20.68l4.83,.95c-.41,2.09-1.15,4.94-2.3,8.12h13.33Zm-11.82,20.68c-1.52-4.31-3.13-7.89-5.06-11.47l1.33-1.04c3.04,2.77,6.02,6.67,7.91,10.2l-4.18,2.31Z"/>
          <path class="cls-6" d="M460.23,319.25l.55-1.5c5.15,.95,6.11,.5,6.44-2.72,.23-2.45,.55-6.44,.92-14.42h-5.75c-.69,12.15-2.9,17.6-8.37,22.99l-1.15-1.22c3.82-5.44,5.66-10.75,5.7-30.25h-5.47v-2.04h11.12c-1.24-2.72-2.94-5.8-4.37-8.12l1.38-1.04c2.48,1.81,5.33,5.03,6.8,7.17l-3.03,2h9.47v2.04h-11.86l-.14,6.44h9.7c-.14,7.17-.55,13.56-1.15,18.28-.69,5.4-5.84,5.8-10.8,2.4Zm34.21,.09l-2.71,4.44c-3.91-2.04-7.03-5.03-9.33-8.71-2.94,3.76-7.03,6.89-12.73,8.57l-.74-1.54c5.61-2.22,9.29-5.99,11.72-10.2-1.88-3.95-3.03-8.48-3.49-13.24-1.06,2.22-2.3,4.17-3.68,5.71l-1.24-.86c3.17-5.67,4.55-13.56,5.42-22.54l4.51,.77c-.46,3.08-1.2,6.44-2.16,9.66h13.65v2.04h-4.28c-.14,4.62-1.15,11.79-4.69,18.14,2.3,2.99,5.42,5.67,9.75,7.75Zm-11.95-11.34c2.02-5.17,2.58-10.57,2.71-14.56h-5.88l-.55,1.5c.6,4.58,1.61,9.07,3.72,13.06Z"/>
          <path class="cls-6" d="M520.36,317.52c-1.47-2.27-2.76-4.04-3.91-5.49v11.07h-3.77v-10.16c-2.07,2.54-5.56,5.62-8.78,7.39l-.83-1.27c3.26-2.63,5.93-5.08,8.92-10.93h-6.85v-2.04h7.54v-4.13h3.77v4.13h6.57v2.04h-6.57v1.72c2.21,1.5,4.32,3.22,6.3,5.53l-2.39,2.13Zm-9.98-21.9h-6.67v-2h4.04v-10.88h18.34v1.95h-14.48v1.68h12.5v1.91h-12.5v1.72h12.5v1.9h-12.5v1.72h14.11v2h-5.15c2.07,1.22,4,2.86,5.24,4.4l-2.94,2.36c-.55-1-1.15-1.95-1.79-2.86-5.1,1.31-11.72,2.31-15.86,2.68l-.96-3.67c1.33,.05,2.85,.09,4.5,.09,.64-1.04,1.2-2.04,1.61-2.99Zm8.18,.68l.64-.68h-4.64c-1.1,1.22-2.16,2.13-3.17,2.95,2.99-.09,6.07-.27,8.64-.5-.51-.68-1.01-1.27-1.47-1.77Zm24.37,24.4l-3.4,2.18c-.37-.95-1.01-2.36-1.75-3.81-4.78,1.68-11.49,3.13-15.63,3.49l-1.1-3.72c1.29,0,2.71-.04,4.23-.14,1.52-2.81,3.03-6.76,4.14-10.29l3.91,1.22c-1.75,3.22-3.95,6.62-5.84,8.93,3.26-.18,6.71-.54,9.56-.95-.83-1.54-1.66-3.04-2.3-4.17l1.29-.86c2.67,2.4,5.61,5.9,6.9,8.12Zm-16.6-18.59l3.49,1.54c-1.84,3.49-4.6,7.3-7.31,9.61l-1.1-1c2.25-2.81,3.68-6.58,4.92-10.16Zm-.69-14.92c3.95-1.41,8.28-3.31,11.95-6.35l3.22,2.77c-4.18,2.22-10.16,4.26-14.62,5.12l-.55-1.54Zm13.7-.18l3.36,2.86c-4.28,2.04-11.54,4.31-16.18,4.76l-.37-1.59c4.32-.86,9.33-3.31,13.19-6.03Zm1.75,6.39l3.08,2.86c-4.41,2.31-12,4.22-17.56,4.72l-.41-1.54c4.83-.95,10.62-3.22,14.9-6.03Zm4.05,17.37l-2.44,3.72c-2.62-1.72-5.75-6.08-6.71-10.29h-4.92v-1.91h5.88c1.52,5.4,6.39,7.62,8.18,8.48Z"/>
          <path class="cls-6" d="M568.07,312.17l4.64,2.45c-4.51,4.13-12.37,7.62-18.3,9.16l-.64-1.54c6.34-2.95,10.85-6.03,14.3-10.07Zm26.9-.45h-40.64v-2.04h3.91c-.23-8.71-.55-16.14-1.01-24.94l3.72,.5c2.02-1.36,3.59-2.81,5.2-4.49l3.36,2.99c-2.25,1.31-5.61,2.63-8.09,3.4l.14,5.03h5.98v1.91h-5.88c.05,2.04,.14,4.13,.18,6.17h5.79v1.91h-5.75c.09,2.49,.14,5.03,.23,7.53h5.88c.6-4.04,.97-7.03,1.38-11.2l3.86,.68c-.41,3.99-.78,6.71-1.38,10.52h3.72c.41-3.95,.78-9.79,1.01-14.06h-4c-.09,.63-.23,1.22-.32,1.81l-3.77-.5c.78-4.99,1.56-10.79,2.07-15.78l3.86,.45c-.14,1.63-.37,3.45-.6,5.31h7.4v2.04h-7.68c-.18,1.54-.41,3.13-.64,4.67h7.77c-.28,4.58-.74,11.61-1.2,16.05h6.99l.46-7.12h-5.1v-1.9h5.2l.41-6.12h-5.42v-1.9h5.56l.41-6.62h-6.07v-2.04h10.02l-1.61,25.71h4.64v2.04Zm.64,7.66l-3.03,4.44c-4.51-3.72-9.61-6.94-14.8-9.7l.64-1.54c5.75,1.59,11.31,3.49,17.19,6.8Z"/>
          <path class="cls-6" d="M617.81,307.96h6.21v13.97h-3.86v-3.22h-8.69v3.81h-3.86v-14.56h6.16v-5.26h-8.32v-2.04h8.32v-5.03h-4.46v-.45c-1.42,1.31-2.85,2.31-4.14,3.08l-.96-1.27c4.74-4.45,7.91-9.75,9.93-16.24l4.51,1.36c-.23,.54-.46,1.04-.74,1.59,3.22,1.77,6.9,4.26,8.87,6.53l-3.08,3.04c-1.7-2.45-4.05-5.35-6.62-8.03-1.75,3.27-3.91,6.08-6.11,8.34h11.77v2.04h-4.92v5.03h8v2.04h-8v5.26Zm-6.34,2.04v6.67h8.69v-6.67h-8.69Zm34.39-10.93c-1.33,2.49-4.78,6.85-6.48,8.21l-1.33-1c1.29-2.13,2.57-5.12,2.99-6.76h-4.23v19.27c0,4.17-3.54,6.21-11.08,1.59l.55-1.54c5.75,1.36,6.48,.73,6.48-1.41v-17.91h-8.28v-2.04h9.65c-1.38-2.04-3.63-4.94-5.7-7.12l.92-1.27c1.66,.86,3.26,1.95,4.78,3.08,1.93-1.91,3.82-4.49,4.74-6.35h-14.11v-2.04h14.34l.92-.59,4.18,2.81c-2.21,2.63-5.33,5.31-8.64,7.35,.87,.77,1.66,1.54,2.34,2.31l-2.02,1.81h5.06l.97-.82,3.95,2.4Z"/>
          <path class="cls-6" d="M697.1,317.03l-1.65,4.35c-4.92,.32-12.87,.45-18.44,.23-9.42-.36-12-2.63-13.98-6.17-1.52,3.22-3.26,5.71-5.33,8.03l-2.8-2.81c2.07-1.59,4.41-3.67,5.98-5.85v-10.66h-5.38v-2.04h9.33v12.61c2.62,3.17,6.25,3.31,12.41,3.31s14.57-.32,19.86-1Zm-41.29-25.35l.87-1.41c2.57,1.13,6.02,3.22,8.46,5.44l-2.94,3.22c-1.56-2.09-4.23-5.21-6.39-7.26Zm1.52-8.8l.83-1.32c2.53,1,6.02,2.95,8.46,5.03l-2.9,3.22c-1.7-2.18-4-4.67-6.39-6.94Zm17.06,5.08h-6.85v-2.04h13.24c-1.98-1.5-3.91-2.63-5.56-3.63l.51-1.5c2.16,.41,5.42,1.22,8,2.58l-1.56,2.54h12.46v2.04h-7.22l1.98,.95c-1.06,1.59-2.53,3.36-3.82,4.67h8.28v18.46c0,5.53-4.23,5.8-9.75,2.4l.46-1.59c5.06,1.09,5.42,.73,5.42-1.77v-15.46h-16.83v20.82h-3.86v-22.86h7.45c-1.1-2.18-2.07-3.9-2.9-5.17l.55-.45Zm5.61,16.05v-2.63h-5.7v-1.86h5.7v-3.08h3.54v3.08h5.52v1.86h-5.52v2.63h4.23v6.89h-8.32v2.81h-3.59v-9.71h4.14Zm5.7-16.05h-9.79c1.43,1.09,2.99,2.63,4.14,4.13l-2.21,1.5h5.75c.74-1.63,1.61-3.9,2.11-5.62Zm-6.25,17.91v3.22h4.74v-3.22h-4.74Z"/>
          <path class="cls-6" d="M722.15,309.91c3.49-1.36,5.47-4.26,5.84-7.26-.32,.18-1.29,.23-1.56,.23-2.16,0-3.68-1.41-3.68-3.63s1.56-3.63,3.72-3.63c2.8,0,4.64,1.68,4.64,5.08,0,5.03-3.26,9.52-8,10.47l-.97-1.27Z"/>
          <path class="cls-6" d="M0,368.3H16.18v19.82h-4.04v-3.76H4.14v3.99H0v-20.04Zm12.14,14.01v-11.97H4.14v11.97H12.14Zm-5.79-33.92H30.07v14.92H6.34v-14.92Zm19.49,12.88v-10.84H10.57v10.84h15.26Zm-5.33,7.03h16.27v19.82h-4.14v-3.76h-8.09v4.04h-4.05v-20.09Zm12.14,14.01v-11.97h-8.09v11.97h8.09Z"/>
          <path class="cls-6" d="M62.38,377.1h-8.14v3.67h-3.86v-29.39h12v25.71Zm-3.77-23.67h-4.37v21.63h4.37v-21.63Zm31.72,27.35l-3.03,3.86c-3.82-3.04-7.91-8.57-9.61-13.7v17.23h-4.23v-16.33c-2.67,5.12-7.54,10.66-13.56,13.92l-.97-1.36c5.75-4.22,10.53-10.25,13.29-17.78h-8.14v-2.04h9.38v-7.53h-8.46v-2.04h8.46v-8.39h4.23v8.39h8.64v2.04h-8.64v7.53h10.39v2.04h-9.84c1.98,4.67,7.4,11.2,12.09,14.15Z"/>
          <path class="cls-6" d="M100.35,363.63h38.3v3.17h-38.3v-3.17Z"/>
          <path class="cls-6" d="M164.93,370.61c-4.18,3.22-8.73,5.99-13.93,8.25l-1.98-4.26c1.84-.36,4.05-1.04,6.3-1.81v-13.47h-5.47v-2.04h5.47v-10.61h3.95v10.61h5.24v2.04h-5.24v11.97c1.75-.73,3.4-1.45,4.78-2.18l.87,1.5Zm8.37-3.99c-.6,1.13-1.38,2.31-2.34,3.45h18.3c-.05,4.08-.28,10.61-1.15,14.92-.83,4.04-4.87,5.62-11.49,.54l.6-1.5c5.24,1.77,6.53,1.22,6.9-.36,.37-1.5,.97-6.17,1.06-11.56h-2.34c-2.71,8.16-10.57,13.47-17.52,15.92l-.78-1.45c5.24-2.54,11.95-7.48,14.34-14.47h-2.8c-2.85,5.67-9.01,9.7-14.71,11.88l-.74-1.5c4.46-2.13,9.38-6.26,11.45-10.38h-2.94c-2.44,2.45-5.47,4.63-8.55,6.17l-.83-1.45c3.95-2.4,7.4-6.35,9.29-10.2h-6.8v-2.04h28.32v2.04h-17.24Zm12.96-4.85h-19.91v-13.33h19.91v13.33Zm-16.05-11.29v3.58h12.18v-3.58h-12.18Zm12.18,9.25v-3.72h-12.18v3.72h12.18Z"/>
          <path class="cls-6" d="M214.81,378.73l4.46,2.49c-4.37,2.99-12.09,6.03-18.34,7.08l-.55-1.5c6.21-2.13,11.68-5.53,14.44-8.07Zm25.98-2.36v2.04h-40.27v-2.04h6.94v-20.54h10.34c.23-1.36,.37-2.49,.55-3.58h-16.55v-2.04h16.83c.14-1.27,.32-2.54,.46-4.08l4.28,.14c-.14,1.13-.32,2.49-.55,3.95h16.73v2.04h-17.06c-.18,1.22-.37,2.49-.55,3.58h11.72v20.54h7.13Zm-11.17-18.5h-18.11v3.13h18.11v-3.13Zm0,5.08h-18.11v3.22h18.11v-3.22Zm0,5.17h-18.11v2.99h18.11v-2.99Zm0,4.94h-18.11v3.31h18.11v-3.31Zm-5.84,5.9c6.25,1.5,11.86,3.31,16.5,5.76l-2.57,4.17c-3.45-2.54-9.01-5.62-14.53-8.39l.6-1.54Z"/>
          <path class="cls-6" d="M273.65,378.55h17.75v2.04h-17.75v3.72c0,4.17-4.55,5.76-11.54,2.22l.41-1.63c6.39,.95,7.08,.59,7.08-1.59v-2.72h-18.53v-2.04h18.53v-2.54h-15.36v-1.9h15.36v-2.18c-4.18,.27-8.64,.36-13.38,.32l-.09-1.63c11.63-.5,19.72-2.09,25.84-4.13l2.44,3.54c-3.4,.73-6.99,1.22-10.76,1.59v2.49h14.3v1.9h-14.3v2.54Zm-17.88-22.81h-3.95v-1.81h8.32v-2.45h-6.94v-1.81h6.94v-3.45h3.86v3.45h6.53v1.81h-6.53v2.45h8.09v1.81h-4.69l.74,.27c-.83,1.36-1.7,2.58-2.67,3.67h5.33v1.63h-7.08v2.49h7.82v1.81h-7.82v3.72h-3.68v-3.72h-7.95v-1.81h7.95v-2.49h-6.9v-1.63h4.32c-.46-1.22-1.2-2.9-1.7-3.95Zm1.93,0c1.01,1.09,1.84,2.18,2.53,3.22l-1.52,.73h5.1c.46-1.18,.92-2.77,1.2-3.95h-7.31Zm18.9,2.09c.23-1.09,.37-2.27,.51-3.63h-4.46v-1.95h4.6c.09-1.72,.14-3.67,.14-5.9h3.86c0,2.18-.05,4.13-.18,5.9h6.3c0,8.84,.37,13.11,1.52,13.79,.37,.23,.83,.23,.55-6.26h1.61c2.11,8.93-.23,10.88-2.8,10.02-3.31-1.13-4.51-4.76-4.51-15.6h-2.9c-.23,2.09-.64,3.9-1.24,5.49,1.47,.95,2.76,1.95,3.68,2.86l-2.48,2.86c-.74-.91-1.65-1.86-2.62-2.81-1.7,2.67-4.23,4.58-7.95,6.26l-.78-1.36c3.26-2.22,5.24-4.22,6.39-7.17-1.24-1.13-2.44-2.13-3.36-2.86l.78-1.27c.92,.36,2.07,.91,3.36,1.63Z"/>
          <path class="cls-6" d="M339.57,388.25c-6.62-1.77-12.32-4.4-17.06-8.34-5.24,4.4-11.77,7.03-20.18,8.44l-.51-1.77c7.86-2.36,13.56-5.12,17.93-9.3-2.94-3.08-5.43-6.8-7.36-11.34l1.61-1c2.57,4.17,5.2,7.3,8.14,9.79,2.3-2.86,4.23-6.26,5.88-10.48l4.5,2.09c-2.07,4.31-4.41,7.89-7.13,10.79,4.55,2.9,9.93,4.58,16.78,6.03l-2.62,5.08Zm-36.78-17.37l-.83-1.41c4.51-3.04,8.51-7.39,11.49-12.83l4.18,2.54c-4.46,5.85-9.33,9.12-14.85,11.7Zm38.07-14.87h-38.53v-2.49h19.22c-2.07-2-5.29-4.67-7.26-6.26l.92-1.59c3.03,1.04,7.49,3.08,10.25,5.08l-2.16,2.77h17.56v2.49Zm-13.84,1c4.83,2.04,10.21,5.4,14.48,9.02l-3.36,3.76c-4.14-4.72-8.51-8.71-12-11.34l.87-1.45Z"/>
          <path class="cls-6" d="M358.18,365.71c-1.98-2.63-4.55-5.62-6.53-7.8l.87-1.36c2.67,1.27,6.07,3.4,8.74,5.62l-3.08,3.54Zm4,2.13c-.83,5.58-3.54,14.01-5.29,18.59l-4.55-2.04c2.62-4.35,6.34-11.56,8.23-17.05l1.61,.5Zm-3.4-12.38c-1.7-2.63-3.63-5.53-5.38-7.8l1.15-1.22c2.11,1.18,5.15,3.36,7.54,6.03l-3.31,2.99Zm7.59,12.7h3.95c0,12.38-1.33,16.55-9.29,20.54l-.87-1.41c5.61-4.4,6.21-7.85,6.21-19.14Zm5.1-13.01h-8.37v-2.04h14.11c-2.07-1.91-4.74-4.17-6.67-5.67l.74-1.45c2.71,.86,7.03,2.86,9.56,4.44l-1.98,2.68h11.95v2.04h-14.71c-1.47,2.58-3.22,5.22-5.1,7.35,5.01-.04,9.38-.41,12.69-.73-.87-1.41-1.7-2.72-2.34-3.63l1.2-1.13c2.8,2,6.3,5.44,8.37,8.48l-3.82,2.49c-.64-1.27-1.52-2.95-2.48-4.63-5.56,1.45-14.25,2.95-20,3.36l-1.15-4.35c1.79,.09,3.54,.14,5.24,.14,1.2-2.49,2.12-4.99,2.76-7.35Zm2.44,12.83h3.86v19.05h-3.86v-19.05Zm14.25,19.59c-5.15,0-6.71-.82-6.71-4.99v-14.69h3.86v14.15c0,1.45,.32,2,2.53,2,1.7,0,2.21-.77,2.21-6.67h1.66c1.93,7.89,1.47,10.2-3.54,10.2Z"/>
          <path class="cls-6" d="M412.1,355.01h8.32v31.83h-4.05v-4.13h-7.91v4.99h-4.05v-32.7h5.47c.64-2.9,1.2-6.76,1.42-9.12l4.97,1.04c-.97,2.49-2.71,5.71-4.18,8.07Zm4.28,2.04h-7.91v10.02h7.91v-10.02Zm0,23.63v-11.56h-7.91v11.56h7.91Zm25.79-25.58c-.09,14.06-.37,21.54-1.1,27.66-.69,5.89-5.66,7.84-14.94,2.36l.5-1.59c8.78,1.95,9.84,1.18,10.25-2.49,.51-4.44,.87-10.34,1.01-23.9h-9.84c-1.43,3.49-3.36,7.17-6.07,10.57l-1.33-1c3.31-6.39,4.92-14.74,5.66-20.68l4.83,.95c-.41,2.09-1.15,4.94-2.3,8.12h13.33Zm-11.82,20.68c-1.52-4.31-3.13-7.89-5.06-11.47l1.33-1.04c3.04,2.77,6.02,6.67,7.91,10.2l-4.18,2.31Z"/>
          <path class="cls-6" d="M494.71,369.07l-1.98,4.04c-3.68-.36-12.87-2.95-19.13-7.66-.78,.59-1.61,1.18-2.44,1.68,1.56,.54,3.54,1.45,4.92,2.4l-1.24,1.54h8.69v8.62h-17.93v3.99c2.67-.18,5.42-.45,8.09-.82l.28,1.54c-4.05,1.31-10.94,2.77-16.55,3.26l-.97-3.76c1.61,.05,3.45,0,5.42-.04v-12.52c-2.67,.86-5.52,1.54-8.6,2.09l-.37-1.59c7.86-2,14.02-5.53,17.93-8.8-1.89,.41-3.59,.73-4.6,.82l-.74-2.99c.78-.04,1.52-.04,2.25-.09v-11.29h6.16c-1.15-.77-2.53-1.59-3.72-2.22l.37-1.22c1.75,.27,4,.64,5.88,1.63l-1.1,1.81h4.37v7.8h-8.87v3.26c1.56-.09,3.08-.27,4.64-.45-.51-.45-1.01-.91-1.56-1.36l.64-1.13c2.39,.91,4.51,2.09,6.25,3.54l-1.93,2.4c-.69-.73-1.33-1.45-2.07-2.18-1.01,.36-2.3,.73-3.59,1.09l2.44,1.27-.83,.73c7.63,3.63,15.59,4.31,19.86,4.63Zm-32.73-8.34c-2.76,1.04-5.01,1.59-7.03,1.91l-.64-3.13c.78,.05,1.56,.05,2.34,0,1.01-1.09,2.25-2.81,3.4-4.53-1.75,.54-3.86,1.04-5.24,1.18l-.46-2.77c.6,.04,1.29,.09,1.98,.09,1.1-2.22,2.12-4.9,2.85-7.39l3.17,1.13c-1.06,1.95-2.94,4.49-4.41,6.26,1.1-.05,2.21-.14,3.26-.23,.87-1.45,1.61-2.77,1.93-3.54l2.94,1.68c-1.52,2.22-4.78,5.71-7.36,7.98,1.38-.09,2.71-.27,4.09-.5,.41-1,.69-2.09,.97-3.26l3.03,.82c-1.33,6.21-4.6,9.7-13.24,12.06l-.46-1.45c5.15-2,7.49-3.99,8.87-6.3Zm7.4,7.48c-2.07,1.13-4.28,2.04-6.62,2.86h10.16c-1.15-1.04-2.53-2.09-3.54-2.86Zm10.3,4.72h-14.07v1.54h14.07v-1.54Zm0,4.9v-1.63h-14.07v1.63h14.07Zm-8.83-25.3h5.75v-1.45h-5.75v1.45Zm0,3.04h5.75v-1.45h-5.75v1.45Zm13.75,26.98c2.21,.63,4.51,1.41,6.94,2.4l-1.93,3.76c-4.92-2.58-11.26-5.22-17.15-6.94l.46-1.59c2.76,.41,5.79,.91,9.15,1.68,1.38-1.22,2.71-2.86,3.72-4.35l3.13,2.27c-1.15,.95-2.8,1.95-4.32,2.77Zm.23-16.46h-3.31v-18.64l3.31,.59h3.91l.6-.5,3.4,1.81c-1.2,1.68-2.62,3.31-4.92,5.22,3.82,1.99,4.83,4.53,4.69,6.48-.28,3.54-3.45,3.95-6.8,1.31l.32-1.13c2.53,.82,3.36,.63,3.22-1.5,0-1.13-.69-3.36-2.99-5.03,1.15-2.04,1.88-3.58,2.3-4.94h-3.72v16.33Z"/>
          <path class="cls-6" d="M534.19,375.19c-.87,2.36-2.02,4.26-3.4,5.85,3.86,.86,7.68,2.04,11.31,3.36l-2.25,4.26c-3.72-1.95-7.77-3.63-12.04-5.03-5.2,3.49-12.64,4.31-22.07,4.76l-.18-1.68c6.76-.63,13.19-1.59,17.88-4.4-2.3-.63-4.64-1.18-7.03-1.68-.78,.95-1.52,1.81-2.21,2.58l-3.54-1.54c1.56-1.86,3.26-4.08,4.92-6.49h-11.36v-2.04h12.74c.83-1.27,1.61-2.63,2.39-3.95h-6.85v-12.38h23.03v12.38h-14.67l2.9,.91c-.51,.95-1.1,1.95-1.79,3.04h22.34v2.04h-10.12Zm-24.92-14.74h-4.05v-8.8h18.85c-2.11-1.27-4.83-2.68-6.99-3.76l.51-1.54c2.76,.27,6.9,1.22,10.07,2.36l-1.61,2.95h16.73v8.8h-4.05v-6.76h-29.47v6.76Zm7.17,1.5h15.13v-3.08h-15.13v3.08Zm0,5.21h15.13v-3.17h-15.13v3.17Zm13.01,8.03h-8.87c-.92,1.27-1.88,2.54-2.85,3.76,2.76,.23,5.66,.63,8.55,1.13,1.38-1.32,2.44-2.95,3.17-4.9Z"/>
          <path class="cls-6" d="M570.46,375.1c3.49-1.36,5.47-4.26,5.84-7.26-.32,.18-1.29,.23-1.56,.23-2.16,0-3.68-1.41-3.68-3.63s1.56-3.63,3.72-3.63c2.8,0,4.64,1.68,4.64,5.08,0,5.03-3.26,9.52-8,10.48l-.97-1.27Z"/>
          <path class="cls-6" d="M619.83,355.87h-15.22v-2.09h6.71c-1.47-2.49-3.31-5.26-4.46-6.67l1.1-1.18c2.3,1.36,5.33,3.81,7.26,5.99l-2.57,1.86h7.17v2.09Zm-1.33,12.2h-12.5v-2h12.5v2Zm-12.46-5.94v-2h12.5v2h-12.5Zm.28,10.02h11.86v15.51h-3.63v-3.13h-4.55v3.63h-3.68v-16.01Zm3.68,10.34h4.55v-8.3h-4.55v8.3Zm35.77,2.18l-2.34,3.99c-4.87-1.81-9.98-6.26-11.36-13.7h-1.01c-1.06,1.22-2.16,2.22-3.36,3.08v5.53c2.07-.5,3.95-1,5.61-1.54l.6,1.45c-3.36,2.04-9.88,4.17-13.38,5.03l-1.33-3.45c1.56-.23,3.17-.45,4.74-.77v-4.13c-1.47,.68-3.13,1.27-5.06,1.91l-.64-1.54c3.91-1.81,5.93-3.27,8.09-5.58h-7.17v-2.04h6.3v-2.31h-4.51v-1.9h4.51v-2.22h-5.88v-1.95h5.88v-2.81h3.77v2.81h5.29v-2.81h3.77v2.81h6.53v1.95h-6.53v2.22h5.2v1.9h-5.2v2.31h7.26v2.04h-11.91c.64,1.95,1.61,3.54,2.85,4.81,1.56-1.18,3.17-2.72,4.51-4.31l3.13,2.49c-2.02,1.27-4.37,2.31-6.34,3.04,2.3,1.86,5.1,2.95,8,3.67Zm-.78-31.93h-26.07v-2.04h13.29c-1.79-1.04-4.23-2.27-6.3-3.22l.46-1.59c2.34,.27,6.16,.86,8.96,1.95l-1.47,2.86h11.13v2.04Zm-24.46,8.03v-6.26h10.53v6.26h-10.53Zm3.49-1.72h3.63v-2.81h-3.63v2.81Zm5.2,9.66h5.29v-2.22h-5.29v2.22Zm0,4.22h5.29v-2.31h-5.29v2.31Zm3.91-12.15v-6.26h10.53v6.26h-10.53Zm3.4-1.72h3.63v-2.81h-3.63v2.81Z"/>
          <path class="cls-6" d="M655.13,377.51c3.26-3.95,5.29-7.53,6.94-15.06l1.66,.23c-.09,7.57-1.7,13.29-3.95,17.73l-4.64-2.9Zm12.46,2.9v-24.31h4.41v23.45c0,2.36,.46,2.9,3.03,3.08,1.75,.14,4.55,.18,6.57,0,3.26-.27,3.4-1,3.54-9.61h1.75c2.25,10.34,1.98,13.06-4.32,13.65-2.8,.27-5.7,.18-8.23,0-5.52-.41-6.76-.68-6.76-6.26Zm2.07-32.74l.87-1.59c5.52,2,10.21,4.54,14.02,7.75l-3.59,3.99c-3.82-4.26-6.9-6.94-11.31-10.16Zm16.23,14.19l1.52-.91c3.95,4.44,7.4,9.89,9.33,14.65l-4.97,2.09c-1.61-5.62-3.36-10.61-5.88-15.83Z"/>
          <path class="cls-6" d="M706.01,362.59l-.97-1.22c4.32-4.53,7.59-10.66,8.92-15.51l4.37,1.31c-.23,.59-.51,1.22-.83,1.86,3.03,1.86,5.38,3.72,7.54,6.3l-3.08,2.58c-1.93-3.49-3.49-5.53-5.2-7.53-.51,.91-1.1,1.86-1.75,2.81,1.56,1.36,3.13,3.04,4.23,4.81l-3.08,1.86c-.55-1.68-1.42-3.67-2.21-5.21-2.3,3.04-5.15,5.94-7.95,7.94Zm35.58,24.22c-4.46,.18-5.2,.18-8.74,0-5.47-.27-6.8-1.54-6.8-6.08v-20.18c-.83,1.04-1.75,2.04-2.76,2.99l-.46-.5v10.43h-9.84v7.94c1.88-.5,3.77-1.04,5.47-1.68-.78-1.54-1.52-2.95-2.16-3.99l1.24-.95c2.94,2.4,6.02,6.3,7.45,9.07l-3.82,2.09c-.41-1.13-1.1-2.77-1.88-4.44-5.06,3.13-8.83,4.49-12.09,5.49l-1.43-4.31c1.01-.09,2.16-.27,3.31-.45v-22.04h13.75v1.36c2.71-4.26,4.09-9.3,5.06-15.37l4.23,.77c-.51,2.13-1.06,4.22-1.84,6.17h13.65c.14,12.06-.05,18.5-.55,21.09-.96,4.9-5.52,4.76-10.67,1.04l.55-1.54c5.33,1.54,6.07,1.41,6.44-1.5,.23-1.95,.37-7.53,.28-17.05h-10.57c-.83,1.77-1.84,3.45-3.08,5.03h11.22v10.79h-7.63v9.25c0,2.31,.28,2.77,2.94,2.99,2.71,.23,4.78,.23,7.91,0,2.76-.36,3.08-1.41,3.08-7.44h1.7c1.88,7.44,2.39,10.75-3.95,11.02Zm-28.6-24.67v3.58h6.07v-3.58h-6.07Zm6.07,9.39v-3.85h-6.07v3.85h6.07Zm10.85-9.39v6.89h3.86v-6.89h-3.86Z"/>
          <path class="cls-6" d="M797.59,367.98l-1.38,3.99c-3.22-.73-6.02-1.68-8.55-2.86v9.25h-17.98v4.58c2.99-.32,5.7-.73,8-1.13l.46,1.45c-4.41,1.68-11.31,3.36-17.47,4.08l-.92-3.72c2.07-.04,4.09-.18,6.07-.32v-13.6c-3.22,1.54-6.53,2.72-9.56,3.36l-.46-1.54c8.28-2.72,16.05-7.62,20.5-14.1l3.36,1.86c-.28,.41-.6,.82-.92,1.18,6.62,5.12,13.84,6.89,18.85,7.53Zm-26.34-12.33h-7.36c-.32,.5-.69,1-1.06,1.5,1.38,.73,2.58,1.54,3.82,2.63l-2.21,2.04c-1.06-1.45-1.75-2.31-2.67-3.36-1.1,1.27-2.3,2.4-3.45,3.31l-1.01-1.04c1.93-2.13,4-5.58,5.42-10.2l3.08,1.09c-.28,.77-.6,1.5-.92,2.22h1.88v-7.71h3.59v2.81h7.03v2.09h-7.03v2.81h.78l1.29-.63,3.26,1.86c-3.63,5.94-9.42,10.75-18.3,12.83l-.46-1.41c7.49-2.49,12.41-7.07,14.3-10.84Zm6.07,12.92c-.97-1.41-2.12-2.67-3.17-3.9-1.84,1.41-3.91,2.72-6.07,3.9h9.24Zm6.57,1.91h-14.21v2.09h14.21v-2.09Zm0,3.9h-14.21v2.09h14.21v-2.09Zm4.37,7.57c2.67,.91,5.29,1.9,7.54,2.99l-2.11,3.67c-4.78-2.9-12.37-6.3-18.21-8.25l.51-1.54c2.85,.45,6.39,1.27,9.98,2.4,1.7-1.45,3.77-3.63,4.92-5.12l3.08,2.27c-1.29,1.09-3.68,2.49-5.7,3.58Zm-1.66-13.38c-3.45-1.81-6.34-4.08-9.01-6.89-.6,.63-1.24,1.22-1.93,1.81,1.61,.91,3.17,2.13,4.55,3.4l-1.7,1.68h8.09Zm0-13.51c1.01-1.5,1.84-3.08,2.39-4.76h-10.07v-1.95h9.88l1.2-.59,3.54,1.72c-1.2,2.77-2.71,5.08-4.46,6.98,2.25,1.36,4.32,2.81,5.84,4.17l-2.58,2.95c-1.52-1.59-3.45-3.26-5.52-4.9-1.61,1.36-3.4,2.5-5.24,3.36l-.83-1.27c1.52-1.09,2.9-2.27,4.05-3.54-2.02-1.5-4.09-2.86-6.02-3.95l.6-1.45c2.25,.73,4.78,1.86,7.22,3.22Z"/>
          <path class="cls-6" d="M808.25,363.63h38.3v3.17h-38.3v-3.17Z"/>
          <path class="cls-6" d="M876.51,378.87c-4.64,3.4-10.57,6.53-16.14,8.57l-1.98-4.58c2.11-.41,4.37-.95,6.62-1.59v-8.25h-2.57v3.04h-3.77v-17.37h3.77v12.29h2.57v-15.46h-7.63v-2.04h7.63v-6.98h3.95v6.98h7.26v2.04h-7.26v15.46h2.44v-12.2h3.68v16.37h-3.68v-2.13h-2.44v7.03c2.39-.77,4.74-1.68,6.8-2.63l.74,1.45Zm5.47,.5l3.77,2.54c-3.91,3.13-9.52,5.53-14.3,6.89l-.64-1.5c4.09-2.13,7.72-4.26,11.17-7.94Zm2.53-28.43h-9.06v-2.04h22.25v2.04h-8.78c-1.06,1.86-2.25,3.67-3.17,4.94h9.84v22.54h-17.98v-22.54h6.02c.32-1.54,.69-3.45,.87-4.94Zm7.13,6.98h-10.16v4.54h10.16v-4.54Zm0,6.58h-10.16v4.81h10.16v-4.81Zm0,6.85h-10.16v5.03h10.16v-5.03Zm7.26,14.06l-2.8,3.45c-1.84-1.95-5.75-5.21-9.15-7.89l.78-1.45c3.82,1.45,7.68,3.31,11.17,5.9Z"/>
          <path class="cls-6" d="M922.71,367.3c0-3.31,2.67-5.94,6.02-5.94s6.02,2.63,6.02,5.94-2.67,5.94-6.02,5.94-6.02-2.63-6.02-5.94Zm9.75,0c0-2.04-1.66-3.67-3.72-3.67s-3.72,1.63-3.72,3.67,1.66,3.67,3.72,3.67,3.72-1.63,3.72-3.67Z"/>
          <path class="cls-6" d="M215.32,506.77v2.04h-17.93v10.25h-4.23v-10.25h-17.88v-2.04h17.88v-5.53h-15.4v-2.04h10.3c-.97-2.13-2.25-4.63-3.68-7.07l.87-.73h-8.6v-2.04h16.41v-5.17h-12.6v-2.04h12.6v-5.49h4.23v5.49h13.01v2.04h-13.01v5.17h16.87v2.04h-10.67l2.99,1.27c-1.2,1.9-3.36,4.49-5.61,6.53h12.04v2.04h-15.54v5.53h17.93Zm-16.69-7.57c1.38-2.4,2.57-5.58,3.13-7.8h-15.49c2.16,1.63,4.18,3.86,6.21,6.44l-2.25,1.36h8.41Z"/>
          <path class="cls-6" d="M264.83,499.1v19.64h-4.05v-2.54h-15.68v2.68h-4.05v-17.14l-2.48,2.09c-.92-1.72-1.84-3.36-2.94-5.08v20.22h-3.95v-18.46c-1.7,1.63-3.68,3.17-5.88,4.67l-.92-1.41c5.66-4.94,9.24-11.25,10.85-15.87h-9.61v-2.04h9.7l.97-.73,3.68,1.86c-1.33,3.31-2.85,6.21-4.74,8.84,1.93,1.45,3.77,2.99,5.33,4.72v-1.45h23.77Zm-32.18-13.65c-1.29-2.9-2.62-5.49-4.18-8.21l1.33-1c2.53,2.04,4.69,4.49,6.44,6.94l-3.59,2.27Zm32.14-3.58h-24.41v-2.04h24.41v2.04Zm-21.24,13.29v-9.57h18.57v9.57h-18.57Zm7.4,5.99h-5.84v5.44h5.84v-5.44Zm0,7.39h-5.84v5.62h5.84v-5.62Zm-3.54-15.42h10.76v-5.49h-10.76v5.49Zm13.38,8.03h-5.88v5.44h5.88v-5.44Zm0,7.39h-5.88v5.62h5.88v-5.62Z"/>
          <path class="cls-6" d="M292.36,505.49c3.49-1.36,5.47-4.26,5.84-7.26-.32,.18-1.29,.23-1.56,.23-2.16,0-3.68-1.41-3.68-3.63s1.56-3.63,3.72-3.63c2.8,0,4.64,1.68,4.64,5.08,0,5.03-3.26,9.52-8,10.48l-.97-1.27Z"/>
          <path class="cls-6" d="M334.14,507.35l1.52,.63c-.87,4.49-2.94,8.75-4.69,11.2l-4.14-2.86c2.39-2,5.56-5.35,7.31-8.98Zm-.05-12.02h-6.57v-2.04h6.57v-6.67c-1.79,1.77-3.68,3.31-5.33,4.26l-1.06-1.27c3.68-3.36,6.76-8.21,9.06-13.51l4.23,1.86c-.78,1.5-2.02,3.22-3.49,4.99h27.45v2.04h-5.01v8.3h7.59v2.04h-7.59v8.98h6.85v2.04h-38.85v-2.04h6.16v-8.98Zm7.54-2.04v-8.3h-3.86v8.3h3.86Zm0,2.04h-3.86v8.98h3.86v-8.98Zm.14,12.56c1.75,2.72,3.63,6.94,4.55,9.66l-4.64,1.18c-.32-2.72-.78-7.17-1.47-10.29l1.56-.54Zm7.17-14.6v-8.3h-3.82v8.3h3.82Zm0,2.04h-3.82v8.98h3.82v-8.98Zm1.47,12.38c2.48,2.49,4.92,6.03,6.44,8.89l-4.41,2c-.69-2.63-1.98-6.71-3.45-10.07l1.43-.82Zm5.84-22.72h-3.82v8.3h3.82v-8.3Zm0,10.34h-3.82v8.98h3.82v-8.98Zm11.4,20.91l-4.46,2.22c-.78-2.68-2.71-7.3-4.51-10.48l1.33-.91c2.67,2.49,6.02,6.26,7.63,9.16Z"/>
          <path class="cls-6" d="M394.63,497.47c1.29,1.41,2.57,3.17,3.31,4.94l-2.58,1.04c-.18-.77-.41-1.5-.64-2.22-3.22,1.13-7.49,1.95-9.93,2.31l-.87-2.99h2.57c1.2-1.04,2.53-2.31,3.72-3.58-2.21,.63-3.95,1-5.29,1.18l-.74-2.86c.64,.04,1.24,.04,1.79,.09,1.15-1.54,2.3-3.67,3.13-5.62h-5.88v28.98h-3.95v-40.18h16.41v11.2h-6.25l2.94,1.45c-1.33,1.45-3.08,3.04-4.64,4.17,1.24,0,2.48-.09,4.09-.18,.87-1,1.52-1.86,1.89-2.45l3.03,1.63c-2.02,1.99-5.1,4.35-7.95,6.03,1.84-.09,3.68-.23,5.47-.41-.23-.73-.5-1.36-.74-1.9l1.1-.64Zm-11.4-14.24h8.6v-2.63h-8.6v2.63Zm0,4.54h8.6v-2.63h-8.6v2.63Zm9.93,16.14h3.31v5.44c0,6.53-5.98,8.25-10.53,8.93l-.51-1.54c3.31-.95,6.02-2,7.17-4.99h-6.34v-7.3h3.31v5.44h3.49c.05-.54,.09-1.09,.09-1.72v-4.26Zm22.57-25.35v36.51c0,3.67-3.91,5.17-10.48,1.18l.46-1.59c5.38,1.22,6.07,1,6.07-1.41v-23.45h-8.87l2.99,1.41c-1.2,1.36-2.9,3.04-4.46,4.31,1.15,0,2.3,0,3.77-.09,.74-1.04,1.29-1.95,1.61-2.54l3.03,1.81c-1.98,2.13-4.41,4.17-6.94,5.76,1.66-.09,3.22-.23,4.83-.36-.23-.68-.51-1.31-.78-1.86l1.06-.68c1.47,1.5,2.76,3.4,3.54,5.08l-2.71,1.09-.69-2.4c-3.08,.95-6.57,1.68-9.29,1.95l-.78-2.77c.92,.05,1.79,.05,2.62,.05,1.06-.91,2.16-2.18,3.22-3.45-1.7,.5-3.4,.86-5.29,1.18l-.78-2.9c.69,.05,1.29,.05,1.84,.09,1.2-1.59,2.11-3.49,2.99-5.67h-3.13v-11.25h16.18Zm-6.34,33.2h-6.99v6.35h-3.4v-14.15h3.4v5.94h3.68v-5.53h3.31v7.39Zm2.39-31.16h-8.37v2.63h8.37v-2.63Zm0,4.54h-8.37v2.68h8.37v-2.68Z"/>
          <path class="cls-6" d="M468.37,500.14h-17.65v13.56c0,6.62-7.58,6.44-14.34,2.72l.41-1.59c8.41,1.22,9.52,.86,9.52-2.63v-12.06h-18.44v-2.27h18.44v-14.6c-5.33,.54-10.85,.86-16.09,.95l-.23-1.68c11.4-1.13,23.12-3.36,31.03-6.08l3.4,3.95c-4,.95-8.69,1.77-13.7,2.36v15.1h17.65v2.27Zm-25.29-5.53l-3.91,2.45c-1.56-3.31-4.09-8.03-5.79-10.75l1.33-1.04c2.25,1.77,5.84,5.53,8.37,9.34Zm10.34,1.04c1.75-2.68,4.23-7.44,6.02-11.61l4.41,2.31c-2.76,3.85-6.67,8.39-9.1,10.43l-1.33-1.13Z"/>
          <path class="cls-6" d="M500.73,493.12v8.16h12.37v17.41h-4.23v-3.08h-20.37v3.22h-4.23v-17.55h12.14v-8.16h-17.75v-2.27h17.75v-7.35c-5.24,.59-10.53,.91-14.94,1l-.28-1.63c9.84-.82,21.7-3.45,28.6-6.48l3.91,3.9c-3.59,1.13-8.14,2.04-12.96,2.72v7.85h18.16v2.27h-18.16Zm-12.23,10.2v10.25h20.37v-10.25h-20.37Z"/>
          <path class="cls-6" d="M569.87,513.98l-2.76,4.67c-5.75-1.32-13.47-4.94-17.01-13.79-3.03,8.62-10.94,12.61-20.6,14.33l-.46-1.63c8.69-2.4,14.62-6.44,16.87-13.83h-16.18v-2.04h16.73c.32-1.54,.46-3.27,.51-5.08l4.51,.18c-.05,1.77-.18,3.4-.51,4.9h17.79v2.04h-17.42c3.72,7.26,12.18,9.25,18.53,10.25Zm-39.4-17.6l-1.1-1.45c3.49-3.04,7.77-8.3,10.07-14.15l4.46,2c-3.17,5.8-8.32,10.66-13.42,13.6Zm10.44-4.81c6.76,.77,7.26,.5,7.26-1.77v-13.01h4.37v13.65c0,5.12-4.6,6.26-12.05,2.81l.41-1.68Zm24.78,3.22c-2.34-3.36-6.57-8.8-10.02-12.29l1.06-1.32c4.6,2.63,10.02,7.07,12.78,10.25l-3.82,3.36Z"/>
          <path class="cls-6" d="M589.08,485.41h8.32v31.83h-4.05v-4.13h-7.91v4.99h-4.05v-32.7h5.47c.64-2.9,1.2-6.76,1.42-9.12l4.97,1.04c-.97,2.49-2.71,5.71-4.18,8.07Zm4.28,2.04h-7.91v10.02h7.91v-10.02Zm0,23.63v-11.56h-7.91v11.56h7.91Zm25.79-25.58c-.09,14.06-.37,21.54-1.1,27.66-.69,5.9-5.66,7.85-14.94,2.36l.5-1.59c8.78,1.95,9.84,1.18,10.25-2.49,.51-4.44,.87-10.34,1.01-23.9h-9.84c-1.43,3.49-3.36,7.16-6.07,10.57l-1.33-1c3.31-6.39,4.92-14.74,5.66-20.68l4.83,.95c-.41,2.09-1.15,4.94-2.3,8.12h13.33Zm-11.82,20.68c-1.52-4.31-3.13-7.89-5.06-11.47l1.33-1.04c3.04,2.77,6.02,6.67,7.91,10.2l-4.18,2.31Z"/>
          <path class="cls-6" d="M671.45,513.98l-2.39,4.9c-4.41-.68-14.02-3.58-17.88-12.92-2.67,7.26-9.33,11.47-20.87,13.2l-.51-1.54c9.88-2.45,14.57-6.39,16.64-11.66h-15.08v-2.04h15.72c.37-1.45,.6-2.99,.69-4.63l4.69,.36c-.09,1.5-.32,2.95-.69,4.26h17.75v2.04h-16.46c4.96,6.58,13.33,7.57,18.39,8.03Zm-1.38-15.55h-39.12v-2.04h17.1v-4.44h-12.6v-2.04h12.6v-4.31h-15.49v-2.04h11.4c-1.66-1.95-4.05-4.44-5.75-5.94l.87-1.41c2.57,1,6.94,3.31,9.1,4.99l-2.16,2.36h6.85c1.61-2.27,2.99-5.26,3.72-7.62l4.55,2.18c-1.65,2.09-3.54,3.9-5.56,5.44h12.83v2.04h-16.05v4.31h13.2v2.04h-13.2v4.44h17.7v2.04Z"/>
          <path class="cls-6" d="M694.43,507.49h-8.14v3.67h-3.86v-29.39h12v25.71Zm-3.77-23.67h-4.37v21.63h4.37v-21.63Zm31.72,27.35l-3.03,3.85c-3.82-3.04-7.91-8.57-9.61-13.7v17.23h-4.23v-16.33c-2.67,5.12-7.54,10.66-13.56,13.92l-.97-1.36c5.75-4.22,10.53-10.25,13.29-17.78h-8.14v-2.04h9.38v-7.53h-8.46v-2.04h8.46v-8.39h4.23v8.39h8.64v2.04h-8.64v7.53h10.39v2.04h-9.84c1.98,4.67,7.4,11.2,12.09,14.15Z"/>
          <path class="cls-6" d="M747.43,505.49c3.49-1.36,5.47-4.26,5.84-7.26-.32,.18-1.29,.23-1.56,.23-2.16,0-3.68-1.41-3.68-3.63s1.56-3.63,3.72-3.63c2.8,0,4.64,1.68,4.64,5.08,0,5.03-3.26,9.52-8,10.48l-.97-1.27Z"/>
          <path class="cls-6" d="M45.37,547.25c-1.1,2.68-2.44,5.53-3.91,7.66h19.72v24.26c0,4.81-4.09,5.53-10.21,2.99l.32-1.72c5.33,.45,5.61,.09,5.61-1.86v-21.5h-6.34v25.26h-3.95v-25.26h-6.07v25.49h-3.95v-25.49h-6.3v26.76h-4.23v-28.93h12.96c.51-2.22,1.01-5.03,1.38-7.66H23.31v-2.27H63.76v2.27h-18.39Z"/>
          <path class="cls-6" d="M115.11,577.77l-1.56,4.85c-3.03,.27-8.87,.23-12.32,.04-7.63-.41-13.88-3.08-16.73-9.43-1.93,4.85-5.29,9.02-10.07,11.43l-.92-1.41c5.38-4.31,7.36-10.07,8.05-17.01l4.69,.54c-.23,1.54-.6,3.08-1.06,4.54,1.98,3.36,4.23,5.26,7.22,6.26v-13.51h-18.02v-2.27h39.72v2.27h-17.29v5.4h13.79v2.04h-13.79v6.94c1.47,.14,3.03,.18,4.83,.14,6.11-.09,8.87-.27,13.47-.82Zm-7.49-19.23h-26.02v-14.51h26.02v14.51Zm-4.14-12.47h-17.75v4.17h17.75v-4.17Zm0,6.21h-17.75v4.22h17.75v-4.22Z"/>
          <path class="cls-6" d="M164.94,549.79v2.49h-24c-1.61,3.04-3.45,5.94-5.43,8.57v23.26h-4.32v-18.19c-2.25,2.4-4.55,4.31-6.71,5.67l-1.01-1.41c3.03-2.58,8.5-9.12,12.64-17.91h-11.03v-2.49h12.09c1.06-2.54,1.98-5.22,2.67-8.03l4.92,1.27c-.69,2.31-1.61,4.58-2.62,6.76h22.8Zm-12.5,29.66h11.72v2.49h-27.08v-2.49h11.03v-12.83h-9.47v-2.18h9.47v-9.71h4.32v9.71h9.42v2.18h-9.42v12.83Z"/>
          <path class="cls-6" d="M210.95,582.39c-2.48,.14-5.61,.14-8.28-.05-5.43-.36-5.66-1.36-5.66-6.17v-12.47l-5.29,.82c-.41,9.98-4.14,16.96-16.28,20.04l-.64-1.54c9.98-4.04,12.28-9.8,12.6-17.96-3.72,.45-7.08,.77-9.33,.86l-.97-4.76c2.25,.09,4.92,.04,7.68,0,1.33-3.08,2.3-6.08,3.03-9.21h-12.41v-2.49h21.79c-2.76-2.22-6.34-4.44-8.64-5.76l.78-1.59c2.94,.63,7.82,2.27,11.17,4.13l-2.07,3.22h17.06v2.49h-22.57c-1.61,3.31-3.59,6.53-5.66,9.12,6.25-.23,12.96-.68,17.93-1.13-1.29-1.86-2.71-3.81-4.23-5.71l1.24-1.09c4.05,2.99,8.96,8.07,11.36,11.25l-3.91,2.81c-.83-1.54-1.93-3.4-3.26-5.44-1.56,.41-3.31,.82-5.2,1.18v12.79c0,2.13,.32,2.58,2.76,2.77,2.11,.14,4.37,.09,6.53-.09,2.44-.23,2.57-.91,2.62-8.21h1.7c2.21,9.71,1.29,11.93-3.86,12.2Z"/>
          <path class="cls-6" d="M232.14,561.35c-1.75-2.27-4.69-5.49-6.53-7.44l.87-1.36c2.71,1.27,6.71,3.72,8.64,5.4l-2.99,3.4Zm2.02,2.04l1.56,.59c-1.1,6.3-3.17,13.56-5.24,18.55l-4.64-2.22c2.48-4.31,5.84-11.2,8.32-16.92Zm-1.88-12.33c-1.61-2.36-4.05-5.8-5.7-7.71l1.01-1.22c2.62,1.41,6.3,4.08,8.05,5.94l-3.36,2.99Zm20.18,4.08v3.67h12.05v20.91c0,4.26-4.09,5.31-10.07,2.58l.41-1.63c5.38,.68,5.79,.14,5.79-2.13v-3.36l-2.25,1.27c-.92-1.95-1.47-5.58-1.75-8.48-.41,3.08-2.07,6.44-4.18,8.71v6.21h-4.05v-7.48l-1.84,.95c-.83-1.91-1.15-5.53-1.29-8.44-.78,4.22-2.25,6.76-4.74,9.07v6.89h-3.86v-25.08h11.72v-3.67h-6.25v-6.76h-5.93v-2.04h5.93v-4.22h3.86v4.22h8.64v-4.26h3.86v4.26h6.99v2.04h-6.99v6.76h-6.07Zm-4.05,17.69v-11.97h-7.86v3.72h5.75c.18,3.9,.78,5.89,2.11,8.25Zm-5.42-6.76h-2.44v8.44c1.24-2.04,2.02-4.54,2.44-8.44Zm3.03-12.97h8.64v-4.72h-8.64v4.72Zm14.62,7.75h-8.18v3.72h5.24c.14,4.26,1.33,6.53,2.94,9.02v-12.74Zm-6.3,5.21h-1.88v7.8c.97-2,1.56-4.58,1.88-7.8Z"/>
          <path class="cls-6" d="M314.01,583.89c-5.15-.5-11.17-1.77-16.74-4.54-4.74,2.18-10.94,3.9-19.63,4.99l-.51-1.59c7.45-1.27,12.87-3.17,16.87-5.22-2.34-1.45-4.51-3.22-6.48-5.3-3.08,2.68-6.67,4.85-9.88,6.12l-.87-1.41c5.38-3.13,9.84-8.25,11.77-12.02l4.18,1.5c-.46,.68-.92,1.36-1.47,2h12.32l1.43-.77,4.32,2.58c-2.3,2.54-4.78,4.94-8.14,6.98,4.64,1.27,9.61,1.86,14.8,2.13l-1.98,4.54Zm-32.69-23.26h-3.95v-8.03h9.24c-.46-1.63-1.1-3.63-1.75-5.17h-4.74l-.37-1.59c10.21-.45,22.11-2.04,28.55-4.35l4.46,3.31c-1.7,.36-3.59,.68-5.66,1l3.59,1.41c-1.06,1.77-2.99,3.85-4.64,5.4h9.61v7.62h-3.77c.97,1,1.84,2.04,2.44,2.9l-3.31,2.27c-1.2-2.4-3.13-5.85-4.32-7.8l1.2-.95c1.1,.86,2.53,2.09,3.82,3.4v-5.4h-30.39v5.99Zm3.4-4.17l1.56,.5c-.41,3.76-1.88,7.07-3.59,9.16l-3.45-2.45c2.07-1.59,4.46-4.04,5.47-7.21Zm5.52-4.76l-2.25,.91h7.72c-.37-1.63-.97-3.9-1.56-5.53-2.39,.14-4.74,.23-6.99,.32,1.15,1.27,2.25,2.86,3.08,4.31Zm1.52,4.08v3.81c0,1.59,.23,2.31,2.39,2.45,2.3,.14,4.74,.09,6.62-.09,2.16-.23,2.34-.91,2.48-4.76h1.65c1.43,5.71,1.2,7.57-3.26,7.98-2.9,.27-6.48,.32-9.06,.09-4.23-.36-4.6-1.5-4.6-4.31v-5.17h3.77Zm5.15,20.04c2.94-1.86,4.87-3.76,6.34-5.35h-13.84c-.23,.23-.46,.5-.74,.73,2.53,1.95,5.29,3.49,8.23,4.62Zm2.11-14.51c-1.7-1.68-3.68-3.58-5.38-4.99l.74-1.22c2.02,.68,4.69,1.9,6.76,3.49l-2.12,2.72Zm7.22-15.42c-3.13,.45-6.48,.77-9.88,1,1.2,1.45,2.34,3.26,3.08,4.67l-2.53,1.04h6.94c.92-2.04,1.93-4.94,2.39-6.71Z"/>
          <path class="cls-6" d="M336.25,550.6h8.32v31.83h-4.05v-4.13h-7.91v4.99h-4.05v-32.7h5.47c.64-2.9,1.2-6.76,1.42-9.12l4.97,1.04c-.97,2.49-2.71,5.71-4.18,8.07Zm4.28,2.04h-7.91v10.02h7.91v-10.02Zm0,23.63v-11.56h-7.91v11.56h7.91Zm25.79-25.58c-.09,14.06-.37,21.54-1.1,27.66-.69,5.9-5.66,7.85-14.94,2.36l.5-1.59c8.78,1.95,9.84,1.18,10.25-2.49,.51-4.44,.87-10.34,1.01-23.9h-9.84c-1.43,3.49-3.36,7.16-6.07,10.57l-1.33-1c3.31-6.39,4.92-14.74,5.66-20.68l4.83,.95c-.41,2.09-1.15,4.94-2.3,8.12h13.33Zm-11.82,20.68c-1.52-4.31-3.13-7.89-5.06-11.47l1.33-1.04c3.04,2.77,6.02,6.67,7.91,10.2l-4.18,2.31Z"/>
          <path class="cls-6" d="M392.84,568.02l.74,1.54c-4.09,3.08-9.93,6.39-15.12,8.62l-1.84-4.4c1.61-.36,4.05-1.13,6.71-2.04v-15.24h-6.02v-2.04h6.02v-11.07h4.05v11.07h5.61v2.04h-5.61v13.79c1.88-.72,3.72-1.5,5.47-2.27Zm20.14,14.69c-4.23,.27-7.82,.27-11.77,0-5.1-.36-6.53-1.77-6.53-6.44v-15.96l-4.55,1.63-.69-1.9c1.75-.63,3.49-1.27,5.24-1.95v-11.29h3.95v9.75c1.47-.54,2.99-1.13,4.46-1.72v-12.65h3.77v11.16c1.38-.59,2.8-1.13,4.18-1.72l.78-1.09,4.41,1.09c-.64,4.58-2.71,14.56-4.32,18.23l-1.65-.36c.64-3.81,1.33-13.29,1.29-15.78l-4.69,1.91v17.23h-3.77v-15.74c-1.47,.59-2.99,1.18-4.46,1.72v17.05c0,2.31,1.2,2.86,3.49,3.04,3.86,.27,6.57,.27,10.62,0,2.44-.18,2.9-1.13,2.9-11.25h1.75c2.02,12.24,1.75,14.65-4.41,15.05Z"/>
          <path class="cls-6" d="M446.39,553.87c-.05,2.31-.09,4.63-.32,6.89h17.1c-.41,10.11-1.01,15.24-1.66,18.23-1.24,5.8-6.76,7.17-15.82,1.63l.64-1.68c8.96,1.95,9.98,1.5,10.67-1.81,.37-1.68,.97-6.12,1.33-14.1h-12.55c-1.29,9.16-5.33,17.23-17.06,21.59l-.74-1.5c12-6.62,13.52-15.92,13.7-29.25h-12.37v-2.49h20.41c-1.79-2.63-4.64-6.3-6.67-8.75l1.2-1.32c3.04,1.68,7.31,4.81,9.7,7.21l-3.13,2.86h17.33v2.49h-21.79Z"/>
          <path class="cls-6" d="M494.61,570.69c3.49-1.36,5.47-4.26,5.84-7.26-.32,.18-1.29,.23-1.56,.23-2.16,0-3.68-1.41-3.68-3.63s1.56-3.63,3.72-3.63c2.8,0,4.64,1.68,4.64,5.08,0,5.03-3.26,9.52-8,10.48l-.97-1.27Z"/>
          <path class="cls-6" d="M535.02,560.4c-1.98-2.36-4.69-4.99-6.62-6.98l.87-1.41c2.44,1.09,6.02,3.04,8.51,4.9l-2.76,3.49Zm2.76,2.54c-.87,5.12-2.94,15.1-4.64,19.5l-4.55-2.04c2.57-4.58,5.75-12.79,7.54-18l1.66,.54Zm-.6-12.38c-1.79-2.27-4.51-5.53-6.21-7.39l1.01-1.32c2.48,1.22,6.02,3.45,8.18,5.31l-2.99,3.4Zm32.73,29.84v2.09h-33.42v-2.09h3.45v-14.92h26.85v14.92h3.13Zm-5.65-18.73h-21.75v-17.51h21.75v17.51Zm-16.51,5.85h-3.77v12.88h3.77v-12.88Zm12.64-21.31h-14.02v13.42h14.02v-13.42Zm-12.18,13.06l-1.15-1.27c3.13-3.27,3.77-6.98,4.37-11.02l4,.82c-.23,1.18-.55,2.4-1.01,3.63,1.88,1.18,3.91,2.81,5.65,4.94l-3.03,2.36c-1.06-2-2.34-3.9-3.45-5.49-1.2,2.31-2.9,4.44-5.38,6.03Zm7.13,8.25h-4v12.88h4v-12.88Zm7.4,0h-3.82v12.88h3.82v-12.88Z"/>
          <path class="cls-6" d="M589.12,577.41v-3.17h-4.37v4.58h-3.86v-32.65h12v31.25h-3.77Zm-4.37-18.64h4.37v-10.57h-4.37v10.57Zm4.37,13.42v-11.38h-4.37v11.38h4.37Zm29.88,12.02c-3.4-.95-7.13-2.54-10.44-5.03-3.63,2.45-8.05,4.17-13.65,5.22l-.64-1.5c5.06-1.31,8.96-3.31,11.95-5.71-1.98-1.86-3.68-4.13-4.97-6.85-2.71,6.94-6.8,11.66-10.48,13.92l-1.06-1.22c4.87-3.9,8.23-11.75,9.65-19.5h-5.52v-2.04h5.84c.18-1.27,.32-2.49,.37-3.72h-4.96v-2.04h4.09c-.87-2.36-2.25-5.26-3.17-6.89l1.24-1c1.61,1.36,3.91,4.26,5.33,6.58l-2.39,1.31h9.88c1.38-2.63,2.71-6.58,3.45-9.75-6.44,.95-13.38,1.45-18.99,1.41l-.28-1.68c8.78-.68,17.84-2.68,21.79-4.08l3.13,3.36c-1.66,.32-3.4,.63-5.2,.91l3.77,1.31c-1.47,2.72-3.59,6.21-5.61,8.53h6.62v2.04h-14.71c-.09,1.27-.23,2.54-.41,3.72h16.23v2.04h-16.6c-.28,1.22-.55,2.36-.87,3.49h10.3l1.42-.77,3.72,2c-1.79,3.4-3.91,6.3-6.53,8.71,3.59,1.81,7.22,2.68,9.79,3.13l-2.11,4.13Zm-10.57-8.98c1.93-1.95,3.31-4.04,4.37-6.17h-10.44c1.66,2.58,3.82,4.63,6.07,6.17Zm.64-20.72l-3.31,.95c-.37-2.59-1.2-5.58-1.79-7.71l1.56-.59c1.15,1.68,2.85,4.99,3.54,7.35Z"/>
          <path class="cls-6" d="M639.18,560.53v23.36h-3.95v-18.87c-1.38,1.36-2.94,2.63-4.64,3.76l-1.01-1.31c4.6-4.31,7.86-10.25,10.11-16.42l3.95,2c-1.24,2.63-2.71,5.12-4.46,7.48Zm-8.23-4.67l-1.01-1.32c3.54-3.17,6.25-7.85,8.41-12.65l4.18,2c-2.85,4.67-6.8,8.98-11.59,11.97Zm40.78,23.4l-2.57,4.67c-2.9-1-7.31-3.17-11.22-7.26-4.09,3.54-8.83,6.12-13.29,7.57l-.69-1.45c4.69-2.18,8.74-5.08,11.91-8.44-2.3-2.99-4.28-6.71-5.47-11.43h-1.42c-.37,8.57-2.16,15.96-7.49,20.95l-1.29-1.04c3.54-5.17,4.74-8.71,4.74-22.99v-11.25l4.14,1.18h6.02v-7.57h4.05v7.57h5.93l1.15-.91,4.32,2.4c-1.88,3.08-4.55,5.89-6.16,7.21l-1.38-.91c.83-1.68,1.66-3.49,2.3-5.76h-6.16v9.07h3.59l1.38-.91,3.86,1.9c-1.52,4.76-4.18,8.89-7.4,12.29,3.77,2.72,7.95,4.13,11.17,5.08Zm-22.67-18.37h6.02v-9.07h-6.02v9.07Zm8.83,11.11c2.21-2.81,3.91-5.85,4.96-9.07h-10.71c1.38,3.9,3.4,6.85,5.75,9.07Z"/>
          <path class="cls-6" d="M703.21,572.64l.6,1.5c-4.83,3.27-15.63,7.39-21.38,9.02l-1.75-4.72c1.24-.18,2.67-.41,4.18-.73v-28.43h3.95v27.57c1.24-.27,2.48-.59,3.72-.91v-33.79h4.14v14.33h6.94v2.04h-6.94v16.28c2.53-.72,4.83-1.5,6.53-2.18Zm14.62,10.34c-2.21,.23-4.92,.18-7.17,0-5.01-.41-6.07-1.68-6.07-6.53v-34.28h4.14v17.87c3.22-3.13,5.52-6.3,7.49-9.79l4.28,2.99c-3.31,3.63-7.08,6.89-11.77,9.34v12.83c0,2.58,.23,3.58,2.53,3.72,2.02,.14,3.86,.14,5.42,0,1.7-.14,1.84-1.13,1.7-9.12h1.65c2.67,9.25,1.24,12.61-2.21,12.97Z"/>
          <path class="cls-6" d="M740.77,550.6h8.32v31.83h-4.05v-4.13h-7.91v4.99h-4.05v-32.7h5.47c.64-2.9,1.2-6.76,1.42-9.12l4.97,1.04c-.97,2.49-2.71,5.71-4.18,8.07Zm4.28,2.04h-7.91v10.02h7.91v-10.02Zm0,23.63v-11.56h-7.91v11.56h7.91Zm25.79-25.58c-.09,14.06-.37,21.54-1.1,27.66-.69,5.9-5.66,7.85-14.94,2.36l.5-1.59c8.78,1.95,9.84,1.18,10.25-2.49,.51-4.44,.87-10.34,1.01-23.9h-9.84c-1.43,3.49-3.36,7.16-6.07,10.57l-1.33-1c3.31-6.39,4.92-14.74,5.66-20.68l4.83,.95c-.41,2.09-1.15,4.94-2.3,8.12h13.33Zm-11.82,20.68c-1.52-4.31-3.13-7.89-5.06-11.47l1.33-1.04c3.04,2.77,6.02,6.67,7.91,10.2l-4.18,2.31Z"/>
          <path class="cls-6" d="M783.29,545.48h12.87v31.93h-3.95v-3.54h-4.96v4.67h-3.95v-33.06Zm8.92,12.52v-10.48h-4.96v10.48h4.96Zm0,13.83v-11.79h-4.96v11.79h4.96Zm12.69,8.21c7.17,1.18,7.77,.68,7.77-1.59v-11.75h-15.13v-2.04h15.13v-4.54h4.23v4.54h5.47v2.04h-5.47v12.88c0,3.86-3.86,6.26-12.46,2.13l.46-1.68Zm-7.31-22.81h9.93v-6.58h-8.5v-2.04h8.5v-6.49h4.23v6.49h8.51v2.04h-8.51v6.58h10.12v2.04h-24.28v-2.04Zm2.39,12.02l1.24-1.04c2.34,1.68,5.01,4.08,7.13,6.71l-3.45,2.45c-1.2-2.31-3.26-5.76-4.92-8.12Z"/>
          <path class="cls-6" d="M868.19,582.66c-2.39,.18-4.87,.18-7.26,.04-4.69-.27-5.84-1.18-5.84-5.08v-15.42h-5.24c-.51,11.75-5.06,18.46-16.18,22.27l-.74-1.59c9.56-4.54,12.09-10.79,12.69-20.68h-12.09v-2.49h16.83v-17.64h4.32v17.64h17.15v2.49h-12.6v14.69c0,1.5,.46,2.04,2.3,2.18,2.12,.14,3.86,.18,5.98,0,2.39-.23,2.44-1.04,2.67-8.98h1.66c1.61,8.34,1.79,12.2-3.63,12.56Zm-24.92-24.17c-1.61-4.17-4-8.48-6.34-12.47l1.33-1c3.31,2.86,7.08,7.03,9.47,10.93l-4.46,2.54Zm15.49,.09l-1.47-.95c2.39-3.81,4.18-7.62,5.88-12.83l4.69,2.45c-2.57,4.35-5.66,8.34-9.1,11.34Z"/>
          <path class="cls-6" d="M897.43,562.89c0-3.31,2.67-5.94,6.02-5.94s6.02,2.63,6.02,5.94-2.67,5.94-6.02,5.94-6.02-2.63-6.02-5.94Zm9.75,0c0-2.04-1.66-3.67-3.72-3.67s-3.72,1.63-3.72,3.67,1.66,3.67,3.72,3.67,3.72-1.63,3.72-3.67Z"/>
        </g>
      </g>
    </g>
  </g>
</svg>