<?xml version="1.0" encoding="UTF-8"?>
<svg id="_圖層_2" data-name="圖層 2" xmlns="http://www.w3.org/2000/svg" viewBox="0 0 94.64 60.46">
  <defs>
    <style>
      .cls-1 {
        fill: #fff;
      }
    </style>
  </defs>
  <g id="_圖層_1-2" data-name="圖層 1">
    <g>
      <g>
        <g>
          <path class="cls-1" d="M51.83,34.76h-4.41v-7.78h4.28c.79,0,1.63,.15,2.03,.93,.27,.52,.32,1.39,.14,1.95-.11,.36-.34,.67-.73,.91,.26,.11,.49,.29,.66,.52,.39,.54,.38,1.53,.23,2.15-.27,1.07-1.22,1.32-2.2,1.32m.99-6.48c-.19-.28-.52-.46-1.02-.46h-3.45v2.54h3.51c.64,0,1.07-.29,1.15-.94,.06-.46,.01-.84-.19-1.14m.32,3.89c-.16-.69-.68-.96-1.35-.96h-3.44v2.7h3.45c.63,0,1.29-.2,1.36-.94,.03-.29,.04-.54-.02-.8"/>
          <path class="cls-1" d="M62.65,34.76c-.32,0-.71-.14-.92-.41-.44,.27-.93,.4-1.45,.41-.54,0-1.18,0-1.73-.03-.95-.05-1.4-.66-1.47-1.57-.02-.35,.02-.63,.07-.9,.14-.71,1.01-1.04,1.63-1.04h2.7v-.52c0-.57-.34-.76-.86-.82-.57-.06-1.39-.04-1.81-.02-.41,.02-.73,.16-.73,.62v.26h-.98v-.32c0-1.01,.71-1.34,1.61-1.37,.77-.02,1.54-.02,2.24,.04,.85,.06,1.46,.76,1.46,1.62v2.93c0,.2,.15,.29,.34,.29h.31v.83h-.42Zm-1.16-2.74h-2.57c-.43,0-.83,.19-.87,.58-.02,.22-.02,.44-.01,.62,.02,.45,.29,.67,.75,.7,.46,.04,.88,.02,1.32,.01,.51-.01,.99-.1,1.38-.39v-1.52Z"/>
          <path class="cls-1" d="M70.45,34.76v-3.9c0-.58-.42-.93-.98-.98-.41-.03-1.04,0-1.45,.03-.44,.06-.86,.26-1.19,.6v4.24h-.92v-5.68h.92v.43c.88-.58,2.07-.49,3.07-.4,.84,.08,1.48,.78,1.48,1.63v4.02h-.93Z"/>
          <path class="cls-1" d="M77.97,34.76v-3.9c0-.58-.42-.93-.97-.98-.42-.03-1.04,0-1.46,.03-.45,.06-.86,.26-1.19,.6v4.24h-.91v-5.68h.91v.43c.88-.58,2.07-.49,3.07-.4,.84,.08,1.48,.78,1.48,1.63v4.02h-.92Z"/>
          <path class="cls-1" d="M87.46,33.84c-.31,.73-.97,.89-1.67,.89-.99,.01-2.46,.22-3.28-.48-.31-.27-.51-.64-.53-1.19-.02-.63-.05-1.4-.01-2.08,.09-1.39,.96-1.87,2.2-1.91,.57-.02,1.35,.01,1.76,.06,1.13,.12,1.72,.86,1.72,1.96v1.2h-4.79c0,.41-.04,.95,.21,1.28,.16,.22,.45,.34,.9,.37,.51,.03,1.19,.03,1.76,.02,.85-.02,.93-.05,1.01-.78h.87c-.02,.44-.1,.54-.14,.66m-.74-2.92c-.02-.41-.18-.84-.62-.94-.47-.1-1.33-.13-1.9-.11-.77,.03-1.24,.22-1.31,1.1-.01,.17,0,.34-.01,.51h3.85c0-.18,.01-.38,0-.56"/>
          <path class="cls-1" d="M93.23,29.89c-.74,0-1.26,.35-1.57,1.04v3.83h-.95v-5.68h.95v.69c.32-.47,.9-.69,1.45-.69h1.37v.82h-1.25Z"/>
        </g>
        <g>
          <path class="cls-1" d="M53.55,59.64c-.44,.51-1.12,.73-1.98,.77-.49,.03-1.4,.04-2.04,0-1.71-.13-2.22-1.23-2.29-2.77-.04-.83-.05-1.72,0-2.56,.11-1.72,.95-2.41,2.59-2.46,.67-.02,1.39,0,2.07,.02,1.3,.07,2.12,.89,2.12,2.2v.1h-.93v-.05c0-.79-.5-1.38-1.3-1.44-.64-.05-1.33-.05-1.87-.02-1.16,.03-1.61,.44-1.74,1.62-.08,.79-.07,1.91-.02,2.71,.07,.95,.28,1.66,1.34,1.8,.52,.06,1.62,.08,2.19,.05,1.01-.07,1.45-.68,1.45-1.64v-.06h.93v.09c0,.72-.18,1.26-.51,1.65"/>
          <path class="cls-1" d="M61.73,60.4v-3.84c0-.72-.62-.99-1.24-1.05-.36-.03-.79-.03-1.15,0-.61,.03-1.07,.17-1.47,.58v4.31h-.95v-7.78h.95v2.45c.46-.27,1-.35,1.56-.39,.45-.02,.96-.03,1.4,0,1.4,.14,1.85,.87,1.85,2.26v3.45h-.95Z"/>
          <path class="cls-1" d="M71.05,60.4c-.32,0-.71-.22-.9-.51-.35,.33-.84,.44-1.16,.47-.53,.06-1.1,.09-1.63,.04-1.09-.09-1.77-.74-1.77-1.86v-3.84h.91v3.66c0,.86,.3,1.17,1.15,1.21,.34,.01,.78,.01,1.13-.03,.47-.06,.89-.24,1.19-.63v-4.21h.92v4.44c0,.31,.24,.42,.39,.42h.31v.83h-.53Z"/>
          <path class="cls-1" d="M76.75,55.54c-.75,0-1.27,.35-1.58,1.04v3.83h-.95v-5.68h.95v.69c.33-.46,.91-.69,1.46-.69h1.37v.82h-1.25Z"/>
          <path class="cls-1" d="M85.6,59.88c-.33,.31-.8,.52-1.45,.56-.53,.03-1.26,.01-1.84-.03-1.26-.1-1.74-.81-1.86-1.99-.07-.61-.03-1.23,.01-1.81,.08-1.16,.83-1.71,1.88-1.84,.63-.08,1.33-.05,1.96-.02,.73,.05,1.21,.34,1.5,.74,.26,.36,.36,.8,.36,1.23h-.02s-.88,0-.88,0v.05c0-.63-.35-1.1-.99-1.18-.47-.07-1.06-.06-1.49-.03-.85,.03-1.3,.28-1.42,1.21-.05,.45-.02,1.06,0,1.52,.04,.71,.34,1.21,1.09,1.3,.61,.06,1.14,.06,1.73,.02,.75-.05,1.09-.49,1.09-1.19h0s.88,.03,.88,.03v.1c0,.48-.16,.97-.55,1.33"/>
          <path class="cls-1" d="M93.51,60.4v-3.84c0-.72-.62-.99-1.24-1.05-.36-.03-.79-.03-1.15,0-.62,.03-1.07,.17-1.47,.58v4.31h-.95v-7.78h.95v2.45c.46-.27,1-.35,1.55-.39,.45-.02,.96-.03,1.39,0,1.4,.14,1.85,.87,1.85,2.26v3.45h-.95Z"/>
        </g>
        <path class="cls-1" d="M48.67,41.36v1.53h2.13v4.59c0,.32-.12,.63-.33,.86-.19,.22-.45,.35-.76,.35h-.71v-.77h.53c.19,0,.47-.25,.47-.49v-3.78h-1.34v4c0,.29-.12,.55-.3,.75-.17,.17-.4,.28-.66,.28h-.48v-.77h.24c.15,0,.4-.26,.4-.43v-6.13h-.59v-.76h1.53v-1.26h.83v1.26h1.25v.76h-2.23Zm3.92-.29l-.08,.21c-.09,.19-.21,.35-.35,.46-.16,.12-.37,.17-.59,.17h-.43v-.71h.2c.2,0,.39-.21,.45-.38l.59-1.48h.92l-.39,.97h3.79v.77h-4.1Zm-1.32,7.62v-.77h2.33v-1.8h-2.02v-.77h2.02v-1.7h-1.18l-.05,.27c-.04,.23-.17,.45-.35,.6-.15,.11-.33,.18-.52,.18h-.35v-.72h.16c.16,0,.29-.15,.32-.29l.32-1.48h.79l-.14,.67h1.01v-1.27h.86v1.27h2.06v.78h-2.06v1.7h1.85v.77h-1.85v1.8h2.23v.77h-5.42Z"/>
        <path class="cls-1" d="M61.05,41.39v1.48h2.08v4.72c0,.26-.11,.54-.29,.75-.18,.19-.44,.33-.73,.33h-.65v-.72h.55c.14,0,.31-.2,.31-.34v-3.98h-1.27v4.17c0,.23-.11,.43-.26,.6-.15,.16-.36,.27-.58,.27h-.49v-.72h.28c.12,0,.24-.13,.24-.24v-6.32h-.47v-.77h1.46v-1.26h.83v1.26h1.16v.77h-2.17Zm4.11,6.67c-.13,.18-.28,.33-.45,.44-.18,.11-.4,.18-.63,.18h-.67v-.72h.59c.14,0,.38-.14,.46-.25l.46-.67h.9l-.67,1.03Zm-1.71-1.32v-.72h.81v-3.17h-.65v-.72h.65v-.45h-.78v-.73h.43c.14,0,.32-.15,.37-.28l.5-1.3h.86l-.25,.6h3.69v.76h-4l-.17,.41c-.05,.11-.13,.19-.19,.26h.35v.73h2.46v-.73h.8v.73h.64v.72h-.63v3.17h.79v.72h-5.69Zm4.1-3.89h-2.46v.59h2.46v-.59Zm0,1.26h-2.46v.58h2.46v-.58Zm0,1.26h-2.46v.65h2.46v-.65Zm1.16,3.3c-.21,0-.43-.06-.65-.16-.21-.1-.4-.25-.53-.42l-.77-1.06h.96l.53,.68c.1,.13,.31,.24,.47,.24h.52v.72h-.54Z"/>
        <path class="cls-1" d="M77.14,46.18c-.4,0-.73,.07-.99,.19l-.43,.18v.92c0,.36-.09,.66-.31,.87-.2,.2-.52,.34-.95,.34h-.75v-.73h.7c.31,0,.53-.23,.53-.5v-.65l-.41,.18c-.26,.11-.5,.15-.78,.15h-.95s0-.74,0-.74h.96c.23,0,.44-.06,.62-.14l.56-.25v-.89l1.26-.74h-1.87l-.11,.27c-.09,.22-.25,.4-.44,.54-.18,.13-.4,.21-.67,.21h-.43v-.71h.22c.22,0,.49-.14,.57-.31l.66-1.56h-1.35v-.74h1.73v-1.12h-1.51v-.74h1.51v-.82h.83v.82h.81v.74h-.81v1.12h.53l.99-2.34h.89l-.99,2.34h.66v.74h-2.41l-.37,.84h2.82v.69l-1.74,1.08v.29l.39-.13c.26-.09,.65-.16,.92-.16h.79v.77h-.69Zm4.39,2.47c-.17,0-.37-.1-.55-.22-.19-.14-.36-.32-.44-.48l-.61-1.36-.47,1.35c-.08,.25-.25,.42-.45,.54-.2,.11-.46,.17-.73,.17h-.92v-.71h.77c.29,0,.55-.14,.64-.44l.67-1.99-1.02-2.24h.84l.55,1.2,.48-1.51c.08-.24,.11-.55,.11-.83v-.51h-1.32l-.16,.59c-.07,.25-.24,.46-.47,.61-.2,.13-.43,.2-.67,.2h-.19v-.74c.39,.01,.57-.18,.62-.43l.54-2.56h.85l-.36,1.56h2.88v.77h-.92v.51c0,.31-.06,.73-.16,1.05l-.74,2.33,.93,2.02c.09,.19,.31,.41,.49,.41h.46v.71h-.65Z"/>
        <path class="cls-1" d="M94.16,41.77c-.32,0-.7-.12-.97-.32h-6.6c-.23,.2-.56,.32-.9,.32h-.57v-.66h.39c.2,0,.43-.07,.55-.23l1-1.39h5.65l.93,1.3c.15,.2,.41,.32,.67,.32h.33v.66h-.48Zm-.27,2.75c-.22,.26-.56,.44-1.08,.44h-7.23v-2.95h8.6v1.59c0,.35-.09,.67-.3,.92m-.26,3.69c-.23,.29-.61,.48-1.04,.48h-6.75v-3.15h8.11v1.77c0,.34-.12,.66-.32,.9m-4.17-5.56h-3.03v1.68h3.03v-1.68Zm3.64,3.53h-6.39v.64h6.39v-.64Zm0,1.23h-6.39v.66h5.78c.33,0,.61-.26,.61-.53v-.14Zm-4.89-3.48c-.26,0-.58-.1-.74-.25l-.71-.74h1l.33,.3c.06,.07,.16,.1,.26,.1h.73v.59h-.87Zm3.95-3.78h-4.56l-.48,.67h5.52l-.48-.67Zm1.18,2.5h-3.05v1.68h2.46c.32,0,.6-.21,.6-.54v-1.14Zm-.95,.96c-.14,.15-.52,.32-.74,.32h-.95v-.59h.66c.14,0,.31-.06,.38-.13l.26-.27h1.02l-.63,.68Z"/>
      </g>
      <g>
        <path class="cls-1" d="M17.85,38.18V18.07L46.97,0V20.12l-29.12,18.07Zm3.73-17.39v10.03l21.65-13.43V7.36l-21.65,13.43Z"/>
        <path class="cls-1" d="M20.41,47.33C9.15,47.33,0,38.18,0,26.92S9.15,6.51,20.41,6.51s20.41,9.16,20.41,20.41-9.16,20.41-20.41,20.41m0-36.68c-8.97,0-16.27,7.3-16.27,16.27s7.3,16.27,16.27,16.27,16.27-7.3,16.27-16.27S29.38,10.65,20.41,10.65"/>
      </g>
    </g>
  </g>
</svg>