<?xml version="1.0" encoding="UTF-8"?>
<svg id="_圖層_2" data-name="圖層 2" xmlns="http://www.w3.org/2000/svg" viewBox="0 0 286.37 90.63">
  <defs>
    <style>
      .cls-1 {
        fill: #facd78;
      }
    </style>
  </defs>
  <g id="_圖層_1-2" data-name="圖層 1">
    <g>
      <path class="cls-1" d="M.77,31.86v-.09c1.38-2.68,1.73-4.2,1.72-7.75l-.02-16.02c0-3.59-.35-5.06-1.74-7.75v-.09C7.05,.17,8.57,0,12.07,0c9.35-.04,11,4.11,11,7.4,0,3.38-1.77,6.28-5.88,7.66,5.58,.87,7.54,4.37,7.54,7.97,0,4.94-3.58,8.83-12.59,8.83H.77ZM12.48,14.93c4.37-.04,5.84-3.85,5.84-7.27,0-4.37-2.52-6.8-6.98-6.8-1.69,0-2.9,.17-3.9,.43l.02,13.64h5.02Zm7.02,8.31c0-4.33-2.13-7.45-6.63-7.45H7.46l.02,14.67c1.04,.26,2.42,.52,4.07,.52,5.32,0,7.96-3.12,7.96-7.75Z"/>
      <path class="cls-1" d="M37.91,29.65c-1.34,1.52-3.5,2.86-6.23,2.86-2.55,0-4.63-1.21-4.64-3.68,0-4.37,6.23-6.49,10.77-7.23v-4.72c0-2.25-.92-3.72-3.99-3.72-1.65,0-3.9,.43-5.75,1.95l-.22-.26c1.77-2.51,4.84-4.29,8.61-4.29,4.37,0,5.67,2.47,5.68,5.15l.02,12.34c0,1.08,.44,1.9,1.69,1.9,.65,0,1.34-.22,2.12-.82l.09,.09c-.65,1.39-1.94,3.16-4.54,3.16-2.16,0-3.29-1.26-3.6-2.73Zm-.09-.74v-6.58c-3.43,.78-6.72,2.21-6.71,5.06,0,1.69,1.13,2.77,3.16,2.77,1.47,0,2.81-.56,3.55-1.26Z"/>
      <path class="cls-1" d="M54.1,31.86h-6.28v-.09c.82-2.38,.99-4.5,.99-8.31v-5.11c0-2.86-.92-4.46-1.96-5.63v-.09l6.1-2.29v4.16s.18,.04,.18,.04c1.86-2.25,3.93-3.98,6.96-3.98,3.94,0,6.11,2.42,6.11,6.28v6.58c.01,3.9,.1,5.97,1.01,8.35v.09h-6.28v-.09c.78-2.38,.95-4.68,.94-8.31v-5.63c0-2.47-1.1-4.63-4-4.63-1.82,0-3.51,.82-4.76,2.16v8.05c.01,3.77,.1,5.97,.97,8.35v.09Z"/>
      <path class="cls-1" d="M77.69,31.86h-6.28v-.09c.82-2.38,.99-4.5,.99-8.31v-5.11c0-2.86-.92-4.46-1.96-5.63v-.09l6.1-2.29v4.16s.18,.04,.18,.04c1.86-2.25,3.93-3.98,6.96-3.98,3.94,0,6.11,2.42,6.11,6.28v6.58c.01,3.9,.1,5.97,1.01,8.35v.09h-6.28v-.09c.78-2.38,.95-4.68,.94-8.31v-5.63c0-2.47-1.1-4.63-4-4.63-1.82,0-3.51,.82-4.76,2.16v8.05c.01,3.77,.1,5.97,.97,8.35v.09Z"/>
      <path class="cls-1" d="M103.62,32.51c-5.8,0-9.75-4.59-9.75-10.61,0-6.97,5.22-11.34,9.99-11.34,5.06,0,8.53,4.63,8.28,8.44h-13.9v.82c0,6.1,3.04,9,7.59,9,2.64,0,4.63-1.04,6.1-2.9l.26,.17c-1.12,3.55-4.06,6.41-8.56,6.41Zm-5.3-14.2l9.39-.22v-.48c0-4.29-1.35-6.28-4.03-6.28-3.29,0-5.02,3.03-5.36,6.97Z"/>
      <path class="cls-1" d="M115.48,31.86v-.09c.82-2.38,.99-4.5,.99-8.31v-5.11c0-2.86-.92-4.46-1.96-5.63v-.09l6.1-2.29v5.28h.18c1.73-2.03,4.06-5.11,6.88-5.06l-.08,5.28h-.17c-.82-.65-2.9-1.3-3.85-1.3-.69,0-1.82,.65-2.77,1.95v6.93c.01,3.77,.1,5.97,.97,8.35v.09h-6.28Z"/>
      <path class="cls-1" d="M28.37,87.51c-.74,.56-5.97,3.12-11.9,3.12C6.47,90.63,.01,83.4,0,74.13c-.01-9.22,7.17-16.49,17.25-16.49,4.59,0,8.62,1.17,10.91,2.08l.87,7.1-.35,.13c-4.25-5.97-7.02-8.44-12-8.44-8.01,0-11.2,6.67-11.19,15.63,.01,9,3.35,15.63,10.97,15.63,6.15,0,9.39-4.24,12.41-10.3l.35,.13-.86,7.92Z"/>
      <path class="cls-1" d="M33.35,89.98v-.09c.78-2.38,.95-4.5,.94-8.31l-.02-17.32c0-2.81-.92-4.46-1.96-5.63v-.09l6.27-2.25,.02,16.36c1.86-2.25,3.93-3.98,6.96-3.98,3.94,0,6.15,2.42,6.15,6.28v6.62c.01,3.85,.1,5.93,.97,8.31v.09h-6.28v-.09c.82-2.38,.99-4.72,.99-8.31v-5.63c-.01-2.47-1.14-4.63-4-4.63-1.86,0-3.51,.82-4.8,2.21v8.05c.01,3.72,.15,5.93,1.02,8.31v.09h-6.28Z"/>
      <path class="cls-1" d="M56.94,89.98v-.09c.82-2.38,.99-4.5,.99-8.31v-5.11c-.01-2.86-.92-4.46-1.96-5.63v-.09l6.1-2.29v5.28h.18c1.73-2.03,4.06-5.11,6.88-5.06l-.08,5.28h-.17c-.82-.65-2.9-1.3-3.85-1.3-.69,0-1.82,.65-2.77,1.95v6.93c.01,3.77,.1,5.97,.97,8.35v.09h-6.28Z"/>
      <path class="cls-1" d="M72.35,89.89c.6-2.38,.99-4.55,.99-8.31v-4.94c0-2.77-.92-4.42-1.96-5.58v-.3s6.27-2.29,6.27-2.29l.02,13.07c0,3.72,.09,5.97,.96,8.35v.09h-6.28v-.09Zm2.91-25.8c-1.43,0-2.6-1.17-2.6-2.6,0-1.43,1.17-2.64,2.59-2.64s2.6,1.21,2.6,2.64c0,1.43-1.17,2.6-2.59,2.6Z"/>
      <path class="cls-1" d="M95.58,74.26l-.26,.09c-2.21-3.77-4.68-4.89-6.72-4.89-2.25,0-3.55,1.43-3.55,3.2,0,2.51,2.73,3.46,5.59,4.68,3.03,1.3,6.15,2.9,6.16,7.06,0,4.29-3.58,6.23-8.09,6.23-2.25,0-4.55-.48-6.37-1.13l-.44-5.54,.26-.09c2.17,4.2,4.38,5.97,7.11,5.97,2.9,0,3.98-1.95,3.98-3.72,0-2.25-1.69-3.29-4.59-4.55s-6.41-2.68-6.42-7.01c0-4.42,3.72-5.89,7.52-5.89,2.08,0,4.2,.43,5.37,.87l.44,4.72Z"/>
      <path class="cls-1" d="M100.79,85.39l-.02-15.28h-2.34v-.26s6.27-5.41,6.27-5.41h.43v4.89h5.59v.78s-5.58,0-5.58,0l.02,15.15c0,2.08,.96,3.2,3.03,3.2,1.52,0,2.64-.61,2.86-.74l.13,.17c-1.21,1.69-3.11,2.73-5.54,2.73-2.55,0-4.85-1.17-4.86-5.24Z"/>
      <path class="cls-1" d="M120.49,89.98h-6.28v-.09c.82-2.38,.99-4.5,.99-8.31v-5.11c-.01-2.86-.92-4.46-1.96-5.63v-.09l6.1-2.29v4.16s.18,.04,.18,.04c1.73-2.6,3.89-3.98,6.62-3.98,3.16,0,4.76,1.6,5.11,3.94l.13,.04c1.77-2.6,3.93-3.98,6.66-3.98,3.59,0,5.24,2.21,5.25,5.76v7.1c.01,3.9,.1,5.97,.97,8.35v.09h-6.23v-.09c.78-2.38,.95-4.68,.94-8.31v-6.15c-.01-2.21-.71-4.11-3.22-4.11-1.43,0-3.2,.61-4.37,2.34v7.88c.01,3.9,.1,5.97,1.02,8.35v.09h-6.28v-.09c.82-2.38,.95-4.68,.94-8.31v-6.15c-.01-2.21-.66-4.11-3.22-4.11-1.43,0-3.2,.61-4.33,2.34v7.88c.01,3.77,.1,5.97,.97,8.35v.09Z"/>
      <path class="cls-1" d="M158.32,87.77c-1.34,1.51-3.5,2.86-6.23,2.86-2.55,0-4.63-1.21-4.64-3.68,0-4.37,6.23-6.49,10.77-7.23v-4.72c0-2.25-.92-3.72-3.99-3.72-1.65,0-3.9,.43-5.75,1.95l-.22-.26c1.77-2.51,4.84-4.29,8.61-4.29,4.37,0,5.67,2.47,5.68,5.15l.02,12.34c0,1.08,.44,1.9,1.69,1.9,.65,0,1.34-.22,2.12-.82l.09,.09c-.65,1.39-1.94,3.16-4.54,3.16-2.16,0-3.29-1.26-3.6-2.73Zm-.09-.74v-6.58c-3.43,.78-6.72,2.21-6.71,5.06,0,1.69,1.13,2.77,3.16,2.77,1.47,0,2.81-.56,3.55-1.26Z"/>
      <path class="cls-1" d="M182.07,74.26l-.26,.09c-2.21-3.77-4.68-4.89-6.72-4.89-2.25,0-3.55,1.43-3.55,3.2,0,2.51,2.73,3.46,5.59,4.68,3.03,1.3,6.15,2.9,6.16,7.06,0,4.29-3.58,6.23-8.09,6.23-2.25,0-4.55-.48-6.37-1.13l-.44-5.54,.26-.09c2.17,4.2,4.38,5.97,7.11,5.97,2.9,0,3.98-1.95,3.98-3.72,0-2.25-1.69-3.29-4.59-4.55s-6.41-2.68-6.42-7.01c0-4.42,3.72-5.89,7.52-5.89,2.08,0,4.2,.43,5.37,.87l.44,4.72Z"/>
      <path class="cls-1" d="M202.3,89.98h-8.44v-.09c1.38-2.68,1.73-4.2,1.72-7.75l-.02-16.02c0-3.59-.35-5.06-1.74-7.75v-.09h21.3l1.7,7.71-.39,.09c-2.25-2.34-5.38-6.84-7.32-6.88l-8.57-.3,.02,14.29h4.59c2.08,0,3.89-2.9,5.36-4.55h.39v9.78s-.38,0-.38,0c-1.43-1.52-3.25-4.37-5.37-4.37h-4.59v8.09c.01,3.59,.32,5.06,1.75,7.75v.09Z"/>
      <path class="cls-1" d="M225.07,90.63c-5.8,0-9.75-4.59-9.75-10.61,0-6.97,5.22-11.34,9.99-11.34,5.06,0,8.53,4.63,8.28,8.44h-13.9v.82c0,6.1,3.04,9,7.59,9,2.64,0,4.63-1.04,6.1-2.9l.26,.17c-1.12,3.55-4.06,6.41-8.56,6.41Zm-5.3-14.2l9.39-.22v-.48c0-4.29-1.35-6.28-4.03-6.28-3.29,0-5.02,3.03-5.36,6.97Z"/>
      <path class="cls-1" d="M247.02,87.77c-1.34,1.51-3.5,2.86-6.23,2.86-2.55,0-4.63-1.21-4.64-3.68,0-4.37,6.23-6.49,10.77-7.23v-4.72c0-2.25-.92-3.72-3.99-3.72-1.65,0-3.9,.43-5.75,1.95l-.22-.26c1.77-2.51,4.84-4.29,8.61-4.29,4.37,0,5.67,2.47,5.68,5.15l.02,12.34c0,1.08,.44,1.9,1.69,1.9,.65,0,1.34-.22,2.12-.82l.09,.09c-.65,1.39-1.94,3.16-4.54,3.16-2.16,0-3.29-1.26-3.6-2.73Zm-.09-.74v-6.58c-3.43,.78-6.72,2.21-6.71,5.06,0,1.69,1.13,2.77,3.16,2.77,1.47,0,2.81-.56,3.55-1.26Z"/>
      <path class="cls-1" d="M270.77,74.26l-.26,.09c-2.21-3.77-4.68-4.89-6.72-4.89-2.25,0-3.55,1.43-3.55,3.2,0,2.51,2.73,3.46,5.59,4.68,3.03,1.3,6.15,2.9,6.16,7.06,0,4.29-3.58,6.23-8.09,6.23-2.25,0-4.55-.48-6.37-1.13l-.44-5.54,.26-.09c2.17,4.2,4.38,5.97,7.11,5.97,2.9,0,3.98-1.95,3.98-3.72,0-2.25-1.69-3.29-4.59-4.55s-6.41-2.68-6.42-7.01c0-4.42,3.72-5.89,7.52-5.89,2.08,0,4.2,.43,5.37,.87l.44,4.72Z"/>
      <path class="cls-1" d="M275.97,85.39l-.02-15.28h-2.34v-.26s6.27-5.41,6.27-5.41h.43v4.89h5.59v.78s-5.58,0-5.58,0l.02,15.15c0,2.08,.96,3.2,3.03,3.2,1.52,0,2.64-.61,2.86-.74l.13,.17c-1.21,1.69-3.11,2.73-5.54,2.73-2.55,0-4.85-1.17-4.86-5.24Z"/>
    </g>
  </g>
</svg>