<?xml version="1.0" encoding="UTF-8"?>
<svg id="_圖層_2" data-name="圖層 2" xmlns="http://www.w3.org/2000/svg" viewBox="0 0 1091.17 316.21">
  <defs>
    <style>
      .cls-1 {
        fill: #cb6;
      }

      .cls-2 {
        fill: #c79f62;
      }

      .cls-3 {
        fill: #eeb033;
      }

      .cls-4 {
        fill: #8dc21f;
      }

      .cls-5 {
        fill: #f8ca73;
      }

      .cls-6 {
        fill: #facd78;
      }

      .cls-7 {
        fill: #f7b52c;
      }
    </style>
  </defs>
  <g id="_圖層_1-2" data-name="圖層 1">
    <g>
      <path class="cls-6" d="M227.36,257.91v53.36c0,3.71-3.46,6.03-6.26,3.78-2.43-1.96-5.3-3.13-7.66-3.85-.96-.29-.81-1.16,.37-1.16,2.43,0,6.56,.22,7.29-.22,.37-.22,.37-.51,.37-.8v-51.54h-42.58v54.38c0,3.13-2.73,4.65-5.89,3.85v-64.26l4.64,.94c1.03,.22,1.25,.65,1.25,1.09h38.82c1.62,0,2.58-.73,3.76-2.04l4.71,1.45c3.68,1.16,1.18,3.42,1.18,5.02Zm-13.04,11.34h-29.69c-1.33,0-1.55-.65-3.02-3.93h30.57c1.18,0,1.99-.65,3.46-2.4,1.69,1.75,2.87,2.76,2.87,3.78,0,1.89-1.47,2.54-4.2,2.54Zm-1.99,12v15.7c0,2.98-2.65,4.14-5.82,3.49v-4.14h-13.19v1.31c0,3.34-2.95,4.43-5.82,3.78v-26.24l4.64,.94c.74,.14,1.1,.58,1.18,.95h9.95c1.4,0,2.21-.58,3.24-1.82l4.64,1.23c3.09,.8,1.18,3.13,1.18,4.8Zm-5.82,11.12v-11.49h-13.19v11.49h13.19Z"/>
      <path class="cls-6" d="M335.74,295.86c0,1.82-1.62,2.4-4.13,2.4h-25.27v13.67c0,3.49-3.76,5.53-6.11,3.13-1.62-1.67-5.97-3.85-8.03-4.65-.74-.29-.66-1.09,.15-1.09,1.69,0,7.22,.29,7.59,.14,.37-.14,.37-.29,.37-.58v-10.61h-27.48c-1.33,0-1.69-.95-3.17-4h30.65v-4.65l5.01,.95h.07c3.54-1.67,6.93-3.63,8.32-4.65h-32.04c-1.18,0-1.62-1.09-2.95-3.85h37.86c1.4,0,2.14-.36,3.54-1.53l2.5,2.91c1.77,2.04,1.33,2.47,.52,2.84-3.39,1.6-10.68,4.43-16.8,6.47v1.53h23.21c1.25,0,2.06-.51,3.39-2.04,1.47,1.45,2.8,2.47,2.8,3.63Zm-63.65-38.24h30.79c-.44-.29-.96-.73-1.47-1.31-1.25-1.38-3.76-4.07-5.16-5.67-.66-.73-.22-1.53,.74-1.31,3.76,.95,7.29,1.53,9.5,3.93,1.18,1.24,.96,3.27-.07,4.36h19.74c1.4,0,2.14-.73,3.54-2.25,1.62,1.53,2.95,2.62,2.95,3.63,0,1.67-1.47,2.33-4.13,2.33h-53.48c-1.25,0-1.62-.87-2.95-3.71Zm42.73,21.96v-2.11h-24.75c-.81,2.04-3.31,2.62-5.67,2.25v-16.57l4.71,.87c.74,.14,1.18,.51,1.25,.94h21.44c1.25,0,1.99-.51,3.02-1.67l4.86,1.53c2.95,.94,1.1,2.25,1.1,4.07v7.2c0,2.98-2.8,4-5.97,3.49Zm0-5.74v-5.31h-24.46v5.31h24.46Z"/>
      <path class="cls-6" d="M437.57,296.73c0,1.89-1.47,2.55-4.27,2.55h-24.09v12.5c0,3.78-3.24,4.87-6.34,4.14v-16.65h-26c-1.55,0-1.99-.73-3.39-3.93h29.39v-6.98h-19.52c-1.62,0-1.99-.73-3.31-4h29.1c1.4-2.54,3.54-7.27,5.16-12.21h-36.61c-1.55,0-1.99-.73-3.31-3.93h28.43v-6.61h-17.31c-1.47,0-1.92-.73-3.24-3.85h20.55v-7.71l5.01,.94c.81,.14,1.25,.58,1.25,1.02v5.74h12.08c1.4,0,2.28-.65,3.61-2.25,1.84,1.67,3.02,2.54,3.02,3.63,0,1.82-1.47,2.47-4.2,2.47h-14.51v6.61h21.07c1.47,0,2.14-.65,3.68-2.33,1.84,1.74,2.95,2.62,2.95,3.78,0,1.89-1.33,2.47-4.05,2.47h-17.53l3.61,2.25c1.33,.8,1.33,1.24,.52,2.18-2.36,2.69-5.45,5.96-7.29,7.78h12.01c1.62,0,2.28-.58,3.68-2.25,1.92,1.82,3.02,2.62,3.02,3.71,0,1.96-1.4,2.54-4.2,2.54h-17.31v6.98h21.58c1.62,0,2.28-.73,3.76-2.4,1.84,1.74,3.02,2.62,3.02,3.78Zm-42.36-14.98c-1.4-2.62-2.5-5.6-3.61-7.92-.37-.73,.22-1.53,1.11-1.02,3.09,1.67,6.19,3.35,7.59,5.74,2.06,3.56-2.28,8.36-5.08,3.2Z"/>
      <path class="cls-6" d="M500.42,281.75c3.39,3.56-.29,8.58-3.39,4.22-1.47-1.96-2.58-3.85-3.61-5.38v31.62c0,3.2-2.65,4.36-5.67,3.71v-30.17c-2.95,3.27-6.34,6.47-10.09,8.94-.88,.58-1.55-.51-1.03-1.09,4.79-5.16,8.18-9.96,11.34-14.76,3.17-4.8,4.79-7.85,5.82-10.47h-14.73c-1.03,0-1.47-.73-2.8-3.78h16.65c1.62,0,2.36-.22,3.83-1.74l2.95,2.54c1.55,1.31,1.55,1.82,.66,3.27-1.03,1.6-2.73,4.58-5.82,8.87,2.06,1.09,4.05,2.25,5.89,4.22Zm-15.03-30.61c-.37-.8,.15-1.53,1.1-1.02,2.21,1.16,6.33,4.07,7.44,6.9,1.77,4.58-2.8,7.63-4.86,3.05-1.47-3.27-2.87-7.2-3.68-8.94Zm55.69,4.22c0,1.67-1.33,2.4-3.68,2.4h-33.22c-1.25,0-1.62-.73-3.02-3.71h34.11c1.33,0,1.99-.58,3.24-1.96,1.55,1.53,2.58,2.25,2.58,3.27Zm-2.8,30.02v26.39c0,3.2-2.58,4.14-5.67,3.49v-5.74h-22.84v2.54c0,3.27-2.5,4.07-5.67,3.63v-35.77l4.05,.73c1.25,.22,1.62,.65,1.62,1.02h19.67c1.33,0,2.06-.44,3.17-1.67l4.12,1.24c3.17,.94,1.55,2.18,1.55,4.14Zm-10.09-6.83v-2.84h-13.7c-.37,2.69-3.09,3.49-5.52,2.98v-17.96l4.57,1.02c.59,.14,.96,.51,1.03,.8h10.76c1.33,0,2.14-.73,2.87-1.67l4.42,1.38c3.02,.94,1.18,2.76,1.18,4.07v8.8c0,3.05-2.95,3.85-5.6,3.42Zm-18.42,6.76v8.36h8.62v-8.36h-8.62Zm0,20.57h8.62v-8.58h-8.62v8.58Zm18.42-33.66v-6.18h-13.63v6.18h13.63Zm-4.12,13.09v8.36h8.55v-8.36h-8.55Zm8.55,20.57v-8.58h-8.55v8.58h8.55Z"/>
      <path class="cls-6" d="M608.36,267.73v39.25c0,3.05-3.24,4.29-5.82,3.49v-3.92h-12.23v2.91c0,3.05-3.39,4.22-5.82,3.42v-51.25l4.57,.87c1.03,.22,1.25,.73,1.25,1.02h1.92c1.11-3.42,2.36-8.43,3.09-12.94l3.98,1.82c1.7,.8,1.77,1.16,1.11,2.33-1.03,1.74-3.24,6.03-5.31,8.8h4.42c1.4,0,2.06-.58,3.02-1.74l4.71,1.45c3.31,1.02,1.11,3.12,1.11,4.51Zm-18.05-.51v15.27h12.23v-15.27h-12.23Zm12.23,35.4v-16.36h-12.23v16.36h12.23Zm39.85-33.88c-.15,36.2-3.83,43.98-8.32,46.45-1.62,.87-2.87,.58-4.13-.36-1.47-1.09-4.57-2.62-7.51-3.93-.74-.36-.74-1.16,.3-1.09,8.55,.51,9.06,.58,10.31-2.54,1.1-2.76,1.99-7.56,2.58-13.52,.81-8.43,.96-18.47,.88-25.44h-16.79c-2.95,5.23-5.6,8.94-8.91,12.14-.66,.58-1.62-.15-1.18-.87,2.21-3.93,5.01-9.6,7.66-16.79,1.47-3.93,2.73-8.07,3.61-12.14l3.68,1.82c1.77,.87,1.99,1.09,1.55,2.18-1.18,3.05-2.65,6.4-4.27,9.67h11.27c1.4,0,2.14-.51,3.17-1.6q.07,0,.15,.07l4.49,1.6c3.76,1.38,1.47,3.42,1.47,4.36Zm-19.82,23.26c-1.55-3.71-3.39-8.8-5.38-12.79-.29-.58,.22-1.6,1.18-.87,3.83,3.13,7.37,6.25,9.28,10.47,2.28,5.09-2.87,8.51-5.08,3.2Z"/>
      <path class="cls-6" d="M709.08,301.09c3.68,4.58,.74,10.9-3.98,4.72-1.47-1.96-3.24-4.22-5.16-6.47-4.27,6.4-9.87,11.49-15.84,14.69-1.03,.58-2.21-.15-1.1-1.16,4.79-4.43,9.8-9.96,13.63-17.23-1.4-1.53-2.8-2.91-4.35-4.29-1.47,3.34-3.54,3.85-6.85,2.62,2.43-5.02,5.08-15.78,7.07-26.61h-7c-1.03,0-1.25-.65-2.72-3.85h10.39c.81-4.87,1.47-9.59,1.84-13.59l3.61,1.09c1.92,.58,2.06,1.16,1.92,2.25-.37,2.47-.88,6.11-1.55,10.25h3.17c1.4,0,2.28-.43,3.31-1.74l3.17,1.96c2.14,1.31,1.69,2.11,1.47,3.63-1.62,10.98-3.76,20.21-7.51,27.48,2.43,1.82,4.64,3.85,6.48,6.25Zm-10.68-9.23s.07-.07,.07-.14c2.73-6.47,4.57-14.83,5.67-24.35h-5.82c-1.33,7.27-3.02,15.41-5.01,21.37l5.08,3.12Zm50.02-9.81c0,1.74-1.55,2.54-3.98,2.54h-13.63v27.04c0,3.35-3.24,5.31-6.11,3.2-3.09-2.33-6.85-3.56-8.91-4.51-.81-.36-.74-1.16,.15-1.16,1.77,0,7.81,.36,8.54,.07,.37-.14,.37-.36,.37-.65v-23.99h-13.85c-1.18,0-1.33-.87-2.65-3.92h16.5v-12.65l4.2,1.02c2.5-3.05,5.23-7.2,6.85-9.96h-22.98c-1.18,0-1.47-1.24-2.65-3.78h25.34c1.55,0,2.21-.36,3.31-1.45l2.8,2.76c1.55,1.53,1.77,1.96,.88,2.91-3.24,3.27-7.66,7.63-11.79,11.2v9.96h11.34c1.32,0,2.21-.73,3.46-2.25,1.77,1.6,2.8,2.47,2.8,3.63Z"/>
      <path class="cls-6" d="M797.14,297.46c.96,4.65,1.7,8.43,1.62,10.98-.15,4.07-2.06,6.91-4.71,6.98-2.28,.07-3.98-1.75-3.17-4.43,1.03-3.49,3.39-8.51,3.39-12.14,0-2.47-3.17-3.63-7.66-3.93-1.1-.07-1.25-1.45-.07-1.53,4.13-.29,5.45-.73,6.7-2.98,3.02-5.52,6.48-14.39,9.28-22.1,.52-1.31,1.92-.87,1.55,.36-5.38,19.63-7.88,24.21-6.93,28.79Zm-11.12-29.08c-.52-.87-.07-1.67,.96-1.16,3.39,1.67,5.82,2.76,7.66,4.8,3.76,4.14-.74,9.67-3.76,5.09-1.99-3.05-3.54-6.25-4.86-8.72Zm4.79-15.56c-.59-.94-.22-1.82,.96-1.31,3.31,1.45,5.97,2.69,7.66,4.43,3.54,3.63-.44,9.59-3.68,4.94-2.06-2.98-3.76-6.11-4.93-8.07Zm34.03,56.7c1.84,5.6-4.05,7.78-5.23,2.98-.3-1.09-.59-2.47-.81-3.85-3.76,1.53-8.03,2.91-12.3,4.43-2.28,.8-2.58,.73-6.26-4.22,2.21-.36,4.2-.65,6.04-.87,5.45-9.38,10.24-20.21,12.6-28.71l3.98,2.11c1.55,.8,1.47,1.24,.74,2.76-3.09,6.62-8.55,15.99-14.22,23.41,3.46-.44,6.34-.8,8.91-1.24-.44-2.55-.88-5.02-1.25-6.54-.22-.94,.59-1.6,1.25-.8,2.51,3.05,5.23,6.54,6.56,10.54Zm-21.73-45.94h26.52c1.7-3.34,4.27-8.94,5.82-13.45l4.12,2.54c1.4,.87,1.4,1.38,.81,2.11-1.18,1.45-4.71,5.6-7.73,8.8h12.45c1.18,0,1.84-.51,3.24-2.04,1.7,1.6,2.73,2.55,2.73,3.42,0,1.6-1.4,2.47-3.98,2.47h-40.96c-1.1,0-1.69-.87-3.02-3.85Zm14.44,8.65c-1.47,2.69-4.94,8.14-7.74,12,1.25,1.31,2.28,2.62,3.02,3.93,2.58,4.72-2.43,8.29-4.57,3.85-1.55-3.2-3.61-8.87-4.57-11.12-.44-1.02,.37-1.45,1.18-.87,1.1,.8,2.06,1.6,3.02,2.4,1.55-3.93,3.68-9.89,4.79-14.83l3.39,1.82c2.14,1.16,2.28,1.38,1.47,2.84Zm-5.08-20.57c-.37-.73,.15-1.45,1.18-.94,3.83,2.04,6.63,3.78,8.18,6.32,2.36,3.85-2.21,8.72-5.01,3.27-1.92-3.71-3.31-6.69-4.35-8.65Zm38.01,58.37c1.55,5.09-3.68,7.12-5.01,3.27-.44-1.31-1.03-3.2-1.62-5.31-3.83,1.45-8.47,2.98-12.89,4.65-2.28,.87-2.73,.73-6.11-4.07,1.7-.22,3.31-.51,4.86-.73,4.42-7.34,10.24-20.14,12.52-29l3.61,2.11c1.69,.94,1.92,1.24,1.25,2.62-2.95,6.11-9.13,17.23-14.14,23.84,3.83-.58,7.29-1.09,10.24-1.67-.66-2.47-1.4-4.94-1.84-6.54-.29-1.02,.66-1.45,1.18-.87,3.98,4.14,7,8.51,7.96,11.7Zm-10.31-38.09c-1.62,3.12-5.01,8.65-7.88,12.43,1.55,1.45,2.8,2.91,3.54,4.22,2.28,4.14-2.06,8.36-4.79,3.49-1.62-2.91-3.98-9.01-5.08-10.98-.59-1.02,.37-1.53,1.25-.87,1.03,.8,2.14,1.6,3.24,2.54,1.47-3.78,3.54-10.18,4.64-15.12l3.31,1.67c2.14,1.09,2.43,1.38,1.77,2.62Z"/>
      <path class="cls-6" d="M897.56,291.86v3.05c0,3.49-2.51,4.87-5.82,4.29v-41.95l4.49,.95c.81,.22,1.25,.51,1.33,.87h3.46c1.55,0,2.28-.51,3.17-1.74l4.93,1.67c2.87,.94,.88,2.76,.88,4.22v29.59c0,3.05-2.5,4.29-5.82,4.07v-5.02h-6.63Zm0-29v25.22h6.63v-25.22h-6.63Zm57.24,43.04c-4.71,2.33-5.3,2.54-6.93,1.02-3.76-3.49-7.51-8.43-10.39-13.67-1.69-2.98-2.95-6.03-3.9-8.8v27.77c0,3.27-3.09,4.43-5.97,3.85v-30.39c-1.47,3.05-3.61,6.11-6.33,9.52-5.67,7.12-13.48,13.59-20.63,16.36-1.18,.44-1.99-.44-.81-1.31,5.67-4.29,12.6-11.27,17.46-18.03,2.95-4.07,5.31-8.14,6.93-11.99h-10.83c-1.18,0-1.62-.87-3.02-3.78h17.24v-11.19h-11.42c-1.18,0-1.77-.95-2.95-3.78h14.36v-11.34l4.71,.94c.81,.14,1.25,.65,1.25,1.02v9.38h8.1c1.33,0,1.92-.87,3.24-2.18,1.55,1.38,2.8,2.55,2.8,3.56,0,1.45-1.47,2.4-3.98,2.4h-10.17v11.19h13.92c1.32,0,2.14-.87,3.39-2.18,1.47,1.53,2.8,2.47,2.8,3.56,0,1.6-1.4,2.4-3.98,2.4h-14.81c1.1,2.69,2.5,5.52,4.64,8.51,3.68,5.16,9.21,11.7,14.95,15.7,.96,.65,1.03,1.09,.3,1.45Z"/>
    </g>
    <g>
      <path class="cls-3" d="M734.35,77.69l-.87,.81c-10.02,9.27-18.94,15.66-26.35,20.12l-1.59,8.95c23.69-4.77,39.73-21.02,39.93-21.23l1.46-1.51-12.56-7.14Z"/>
      <rect class="cls-2" x="425.77" y="47.7" width="53.45" height="9.15"/>
      <rect class="cls-2" x="423.76" y="69.5" width="53.45" height="8.82"/>
      <rect class="cls-6" x="304.21" y="96.6" width="43.43" height="7.78"/>
      <rect class="cls-6" x="304.21" y="120.44" width="43.43" height="7.78"/>
      <polygon class="cls-3" points="59.64 82.98 59.64 90.76 100.76 90.76 101.23 82.98 59.64 82.98"/>
      <path class="cls-3" d="M82.6,85.66l.03,2.1c.01,.63,1.71,64.57-22.65,86.62-13.96,12.64-28.88,8.66-28.88,8.66,0,0,10.83,4.97,16.16,4.97s12.45-1.27,19.83-6.23c19.41-13.05,30.78-44.41,33.79-93.21l.12-2-18.42-.9Z"/>
      <path class="cls-5" d="M56.34,54.76c-.02,.99-2.04,99.06-48.53,135.81l-7.81,6.18,9.58-2.73c15.76-4.5,54.11-45.79,65.45-139.17l.27-2.24-18.93,.24-.03,1.91Z"/>
      <rect class="cls-2" x="219.88" y="50.4" width="70.64" height="7.78"/>
      <rect class="cls-1" x="42.79" y="50.4" width="70.64" height="7.78"/>
      <rect class="cls-6" x="129.11" y="41.07" width="70.64" height="7.78"/>
      <rect class="cls-2" x="119.6" y="90.62" width="70.64" height="5.23"/>
      <rect class="cls-5" x="109.58" y="129.94" width="70.65" height="7.82"/>
      <rect class="cls-6" x="927.02" y="136.17" width="146.87" height="7.76"/>
      <rect class="cls-2" x="303.03" y="38.06" width="77.4" height="7.78"/>
      <path class="cls-4" d="M60.9,3.3s19.93,14.79,17.2,46.28c14.68-5.38,20.97-16.9,20.97-16.9,0,0-11.54-28.61-38.17-29.38Z"/>
      <path class="cls-4" d="M237.55,3.95s19.93,14.79,17.2,46.28c14.68-5.38,20.97-16.9,20.97-16.9,0,0-11.54-28.61-38.17-29.38Z"/>
      <path class="cls-4" d="M306.23,12.72l-.43,1.37c-14.36,45.19-33.39,60.62-33.39,60.62,39.16-16.03,50.58-59.1,50.69-59.53l.63-2.46h-17.49Z"/>
      <path class="cls-2" d="M122.27,67.26c-.07,.32-7.03,32.62-20.07,44.18l-9.49,8.41,11.41-5.54c.92-.45,22.69-11.28,35.22-41.37l.72-1.73-17.38-5.89-.41,1.92Z"/>
      <polygon class="cls-7" points="363.82 52.57 347.57 52.57 328.81 150.31 346.1 150.31 363.82 52.57"/>
      <path class="cls-2" d="M290.72,157.16c-.1,.2-10.38,20.36-50.7,29.64l-14.18,3.26,14.54,.63c.22,0,1.08,.04,2.44,.04,9.61,0,44.62-1.59,64.62-23.71l1.64-1.82-17.44-9.92-.92,1.88Z"/>
      <path class="cls-4" d="M375.91,183.52c-.07-.28-7.89-27.88-51.07-25.73l-7.98,.4,7.24,3.36c.28,.13,28.08,13.23,28.19,31.17l.03,4.82,11.73-12.07,12.56,.69-.69-2.62Z"/>
      <rect class="cls-1" x="952.69" y="43.03" width="132.04" height="11.08"/>
      <path class="cls-3" d="M944.11,36.01c.02,.33,1.76,32.85-9.3,48.04l-3.86,5.31,6.15-2.31c1.08-.4,26.42-10.37,26.42-50.68v-1.91l-19.53-.61,.12,2.15Z"/>
      <rect class="cls-3" x="971.21" y="91.28" width="54.14" height="6.34"/>
      <rect class="cls-4" x="968.76" y="106.96" width="55.2" height="7.35"/>
      <path class="cls-1" d="M996.37,127.64l1.42-1.99-16.74-4-.56,1.53c-.06,.18-6.94,18.4-37.75,38.81l-8.55,5.66,10.2-2.63c1.26-.33,31.28-8.33,51.98-37.39Z"/>
      <path class="cls-1" d="M1023.04,125.45l-.45,1.35c-.05,.17-2.32,20.02-23.27,35.4-56.9,41.76-107.33,43.32-107.33,43.32,1.29,0,129.7-1.63,155.16-76.86l.79-2.32-24.89-.89Z"/>
      <path class="cls-3" d="M1078.66,199.76c-48.89-50.72-121.61-39.87-122.33-39.76l-12.31,1.95,12.39,1.66c41.85,5.59,66.96,18.38,80.66,28.12,14.8,10.53,19.81,19.85,19.87,19.95l1.76,3.34,5.84-11.24,16.78-1.27-2.64-2.74Z"/>
      <rect class="cls-2" x="287.45" y="74.33" width="86.69" height="7.78"/>
      <polygon class="cls-4" points="151.8 62.41 127.59 176.22 144.89 176.22 168.06 62.41 151.8 62.41"/>
      <path class="cls-4" d="M909.87,162.46l8.17-14.35-3.09-.25c-35.59-2.86-57.75-29.4-58.9-30.84-6.16-12.42-7.15-12.01-8.8-11.3-1.99,.85-2.73,1.17,4.43,20.76,13.31,36.43,56.89,52.37,58.74,53.03l6.94,2.48-4.77-5.61c-.96-1.13-2.15-7.98-2.71-13.93Z"/>
      <path class="cls-2" d="M844.48,101.26l-2.68,3.7c-.21,.28-21.15,28.51-71.63,37.53l-16.07,2.87,16.22,1.04c1.95,.12,48.06,2.69,75.27-29.83l.57-.68-1.68-14.63Z"/>
      <path class="cls-3" d="M848.96,129.37l-3.01,3.67c-.23,.28-23.83,28.34-81.24,36.92l-18.28,2.73,18.48,1.18c2.22,.14,54.76,3.11,85.46-29.18l.64-.67-2.04-14.65Z"/>
      <rect class="cls-3" x="781.82" y="43.03" width="131.94" height="11.08"/>
      <path class="cls-6" d="M773.25,36.01c.02,.33,1.75,32.85-9.3,48.04l-3.86,5.31,6.15-2.31c1.08-.4,26.42-10.37,26.42-50.68v-1.91l-19.53-.61,.12,2.15Z"/>
      <rect class="cls-4" x="789.32" y="69.19" width="96.22" height="9.18"/>
      <path class="cls-6" d="M826.84,103.42c-13.39,6.21-27.36,11.6-42.18,13.09-4.66,.26-9.05,.9-13.53-.83-.97-.46-2.47-1.52-2.87-2.64-.9-2.4,1.16-5.01,1.86-5.77,11.28-12.15,40.77-18.33,64.19-16.08,31.85,4.39,38.23,37.37,25.57,62.89-9.59,21.8-28.74,39.86-51.22,47.08-14.73,4.86-30.6,5.52-44.75,1.36,27.72-3.18,52.81-16.94,67.97-39.58,8.82-13.87,17.63-33.33,11.46-49.13-9.79-16.7-30.7-18.53-52.58-14.68-5.32,.94-24.4,7.32-21.96,13.6,.62,1.58,3.37,1.42,5.12,1.43,10.57,.02,20.71-3.45,30.17-7.95,17.96-9.03,36.43-20.1,47.66-36.62,0,0,16.55,8.35,16.55,8.35,0,0-27.4,18.63-41.45,25.5Z"/>
      <path class="cls-1" d="M812.49,4.7s26.62,7.87,21.18,37.21c0,0,17.85-11.8,25.71-6.96,0,0,5.14-29.95-46.89-30.25Z"/>
      <path class="cls-3" d="M606.14,49.47l-.27,3.38,3.15-1.26c9.49-3.8,13.58-11.81,13.75-12.15l.41-.82-.32-.85c-.3-.82-7.64-20.19-24.93-20.73l-6.17-.19,4.77,3.93c.46,.37,11.14,9.39,9.61,28.69Z"/>
      <rect class="cls-2" x="581.15" y="55.79" width="56.68" height="11.58"/>
      <rect class="cls-2" x="586.45" y="80.33" width="40" height="9.62"/>
      <rect class="cls-3" x="581.04" y="101.39" width="39.99" height="9.62"/>
      <rect class="cls-6" x="576.88" y="126.63" width="40.07" height="9.62"/>
      <rect class="cls-2" x="570.53" y="158.03" width="36.66" height="9.62"/>
      <polygon class="cls-6" points="577.66 122.18 563.49 184.45 579.47 184.45 593.1 122.18 577.66 122.18"/>
      <polygon class="cls-2" points="606.42 125.04 597.39 172.4 612.36 172.23 621.66 125.04 606.42 125.04"/>
      <path class="cls-3" d="M747.67,153l-8.26,3.09c-36.93,13.82-64.9,15.75-83.12,5.75-23.8-13.07-27.1-43.24-27.1-43.24-3.4,26.92,3.51,46.46,20.55,58.08,13.98,9.53,32.31,12.15,48.25,12.15,18.74,0,34.18-3.62,35.34-3.9l2.85-.69-8.26-10.5,19.74-20.76Z"/>
      <path class="cls-1" d="M739.45,27.14c-11.87,13.61-28.14,23.36-46.72,27.62-6.17,1.64-14.06,3.44-19.35-.88-10.44-13.19,26.16-26.46,33.76-14.13,5.66,7.9,7.61,14.92,8.72,25.75,2.83,27.64-.47,53.3-13.08,80.19,0,0-17.87-3.44-17.87-3.44,12.94-22.85,20.98-50.96,22.69-75.99,.13-8.33,1.78-17.8-2.42-25.41-5.8-11.31-35.74-2.41-32.7,9.69,3.92,10.95,31.28-5.85,36.51-10.83,6.99-5.78,12.55-12.64,16.19-19.94l14.28,7.37h0Z"/>
      <path class="cls-6" d="M695.62,81.43c-3.42,22.91-11.49,44.8-23.37,64.03l-4.24-2.28c9.2-19.93,14.18-41.51,14.75-62.9l12.87,1.16h0Z"/>
      <rect class="cls-6" x="410.17" y="156.18" width="108.05" height="9.4"/>
      <polygon class="cls-1" points="428.88 29.82 414.51 107.04 432.19 107.04 445.5 29.82 428.88 29.82"/>
      <polygon class="cls-3" points="470.5 29.82 453.07 120.46 470.75 120.46 487.13 29.82 470.5 29.82"/>
      <path class="cls-6" d="M384.14,96.17l-2.94-.82,1.93,23.15,2-.04c1.85-.04,45.8-1.29,80.64-24.51l9.2-6.13-10.82,2.28c-.57,.12-58.12,12.15-80,6.07Z"/>
      <polygon class="cls-3" points="502.68 28.06 487.25 107.04 498.9 107.04 513.79 28.06 502.68 28.06"/>
      <path class="cls-3" d="M548.96,85.93c-4.53-2.44-15.11-.53-23.8,1.71,15.07-11.44,40.35-33.74,35.15-51.27-1.4-4.73-4.33-8.06-8.69-9.87-15.44-6.41-44.21,8.95-45.43,9.61l-.93,.5-3.93,25.14,4.04-2.72c10.21-6.86,28.46-16.18,34-11.9,.1,.08,.34,.26,.4,.96,.64,7.65-19.62,32.7-32.67,46.86l-9.04,5.87,4.55-1.01,6.24-1.12c32.05-5.74,50.89,8.3,50.89,8.3l-10.16-20.75-.6-.32Z"/>
      <rect class="cls-1" x="420.72" y="23.84" width="76.75" height="8.46"/>
      <path class="cls-4" d="M480.98,136.41c-4.23,29.93-27.38,51.29-55.44,57.02-9.65,1.99-19.36,2.37-29.04,.57-3.21-.74-6.61-1.88-9.26-4.47-5.77-5.39-2.08-14.69,4.08-17.97,12.31-6.58,26.48,.62,36.87,7.12,32.76,21.42,82.62,16.52,105.37-16.42,0,0,2.97,14.97,2.97,14.97l16.97,1.03c-19.36,21.26-47.97,31.4-75.83,29.29-13.48-1.06-26.58-4.76-38.21-11.16-11.5-5.51-19.06-16.86-30.13-22.22-7.43-3.63-19.08-3.11-21.74,5.97-2.17,15.46,27.65,9.03,35.88,5.93,20.6-6.69,38.15-28.4,33.11-49.57,0,0,24.41-.1,24.41-.1h0Z"/>
      <path class="cls-6" d="M976.1,66.31c.48,15.12,.52,30.54-5.11,44.68-3.53,7.37-15.02,10.39-18.37,1.81-2.34-7.6,3.37-14.73,7.32-20.7,12.01-16.47,31.33-27.43,51.88-29.52,26.24-3.51,50.92,15.02,35.53,42.02-6.46,9.29-17.34,13.22-26.94,12.3,9.56-1.35,17.92-7.83,20.72-15.61,2.89-7.33-1.67-14.82-6.95-19.15-19.09-14.55-55.1-4.28-71.23,12.51-5.35,5.4-15.02,17.36-4.61,22.46,4.65,1.63,8.95-2.91,9.16-7.33,1.13-13.63-.88-28.29-4.18-41.46l12.78-2h0Z"/>
      <path class="cls-3" d="M894.72,43.1s7,38.45-10.41,50.82c0,0,31.6-6.5,35.48-51.08l-25.07,.27Z"/>
      <path class="cls-1" d="M1066.1,43.1s7,38.45-10.41,50.82c0,0,31.6-6.5,35.48-51.08l-25.07,.27Z"/>
      <g>
        <path class="cls-4" d="M631.13,51.8c4.91-25.83,42.04-16.12,33.18,8.81-3.66,8.77-9.8,13.15-14.56,19.13-5.02,5.75-10.49,10.92-15.89,16.11,7.83-11.82,16.52-24.59,19.5-38.46,1.14-6.23-2.64-11.19-8.69-11.31-5.18-.23-9,2.19-13.53,5.72h0Z"/>
        <path class="cls-4" d="M634.38,95.56c5.83-20.39,34.16-14.95,35.16,5.87,.46,6.06-1.11,11.23-2.92,15.74-7.35,17.12-17.37,32.24-29.3,45.76-23.54,26.43-53.87,46.86-87.26,58.28,32.33-12.57,60.48-35.54,79.49-64.28,9.26-14.01,16.84-29.34,22.2-45.14,1.61-6.24,3.58-11.42,.66-16.75-3.7-6.35-13.67-6.39-18.04,.53h0Z"/>
      </g>
      <path class="cls-7" d="M257.46,52.9c-5.07,38.46-12.74,78.94-36.39,110.84-5.85,7.87-12.77,14.98-20.45,21.06-3.77,2.91-10.25,7.12-14.47,2.71-1.62-2.57-1.04-5.69-.75-8.48,2.15-12.74,6.74-24.93,12.44-36.48,7.75-15.38,18.62-28.9,30.46-41.32,6.38-6.42,11.26-13.35,19.02-18.67,7.96-5.56,21.5-7.04,28.62,.63,6.96,7.37,6.81,18.82,4.73,27.82-4.29,19.82-16.51,38.5-31.44,52.1-6.55,5.98-13.91,11.01-21.88,14.51,6.1-6.2,11.66-12.55,16.47-19.34,10.68-14.97,18.2-31.91,21.58-49.87,.81-5.22,2.49-13.07-1.44-17.11-3.51-3.08-8.64-3.04-13.05-1.58-3.56,1.15-7.12,3.29-10.57,5.72-5.25,3.64-10.26,7.63-14.86,12.06-4.61,4.32-9.07,9.07-13.01,14.02-9.35,11.63-16.04,25.18-20.91,39.23-2.02,6.01-3.98,12.17-4.65,18.47-.17,2.46-.53,5.14,.74,7.15,2.69,2.17,6.19-.14,8.64-1.93,1.89-1.41,3.99-3.65,5.7-5.31,20.23-20.8,30.19-49.12,34.85-77.31,2.78-16.51,3.9-33.31,4.45-50.2l16.17,1.29h0Z"/>
      <path class="cls-4" d="M996.44,0s26.62,7.87,21.18,37.21c0,0,17.85-11.8,25.71-6.96,0,0,5.14-29.95-46.89-30.25Z"/>
      <path class="cls-3" d="M137.72,8.45s-3.97,42.64-47.66,74.19c0,0,59.88-25.87,66.6-72.77l-18.94-1.42Z"/>
      <rect class="cls-2" x="87.82" y="172.39" width="89.42" height="11.33"/>
      <polygon class="cls-6" points="323.55 52.57 307.3 52.57 288.53 150.31 305.83 150.31 323.55 52.57"/>
      <rect class="cls-2" x="273.11" y="144.54" width="90.75" height="7.78"/>
      <rect class="cls-2" x="660.79" y="138.14" width="72.56" height="10.7"/>
      <path class="cls-2" d="M901.97,94.81s-6.92,25.56-35.44,25.7c0,0,27.25,12.43,52.53-16.1l-17.09-9.6Z"/>
      <path class="cls-1" d="M515.8,106.42l-1.12,.81c-.33,.24-33.79,23.84-112.85,28.03l-14.29,.76,13.9,3.43c.26,.06,12.49,2.96,32.96,2.96,24,0,59.34-3.99,99.96-21.18l3.9-1.65-22.46-13.16Z"/>
    </g>
  </g>
</svg>